<svg xmlns="http://www.w3.org/2000/svg" width="1408" height="1024" xmlns:v="https://vecta.io/nano"><style><![CDATA[.R{filter:url(#G)}.S{filter:url(#C)}.T{fill-rule:evenodd}]]></style><defs><linearGradient id="A" gradientUnits="userSpaceOnUse"/><linearGradient id="B" x2="1" href="#A" gradientTransform="matrix(1408,1024,-974.184,1339.503,0,0)"><stop stop-color="#7fa8d1"/><stop offset=".34" stop-color="#4e86c7"/><stop offset=".72" stop-color="#2f69b8"/><stop offset="1" stop-color="#2b5fb0"/></linearGradient><filter x="-50%" y="-50%" width="200%" height="200%" id="C"><feGaussianBlur stdDeviation="18"/></filter><linearGradient id="D" x2="245" href="#A" x1="0" y1="0" y2="0"><stop stop-color="#d6e2ef" stop-opacity=".58"/><stop offset=".5" stop-color="#acc8e3" stop-opacity=".24"/><stop offset="1" stop-color="#4f86c5" stop-opacity="0"/></linearGradient><filter x="-50%" y="-50%" width="200%" height="200%" id="E"><feGaussianBlur stdDeviation="36"/></filter><radialGradient id="F" cx="0" cy="0" r="1" href="#A" gradientTransform="matrix(46460,0,0,46460,43465,11625)"><stop stop-color="#bfd8eb" stop-opacity=".42"/><stop offset=".55" stop-color="#7da9d3" stop-opacity=".16"/><stop offset="1" stop-color="#5d91ca" stop-opacity="0"/></radialGradient><filter x="-50%" y="-50%" width="200%" height="200%" id="G"><feGaussianBlur stdDeviation="7"/></filter><radialGradient id="H" cx="0" cy="0" r="1" href="#A" gradientTransform="matrix(10462.686,0,0,10462.686,10688.059,3933.533)"><stop stop-color="#d5e4f0" stop-opacity=".55"/><stop offset=".72" stop-color="#91b8dc" stop-opacity=".18"/><stop offset="1" stop-color="#5c8fc9" stop-opacity="0"/></radialGradient><radialGradient id="I" cx="0" cy="0" r="1" href="#A" gradientTransform="matrix(28800,0,0,28800,22852,15560)"><stop stop-color="#064eb3" stop-opacity=".62"/><stop offset=".46" stop-color="#155bb8" stop-opacity=".42"/><stop offset="1" stop-color="#4b86c7" stop-opacity="0"/></radialGradient><linearGradient id="J" x2="1" href="#A" gradientTransform="matrix(655,596.594,-536.176,588.667,525,219)"><stop stop-color="#80add4" stop-opacity=".62"/><stop offset=".55" stop-color="#5e91c8" stop-opacity=".38"/><stop offset="1" stop-color="#2d68ba" stop-opacity=".12"/></linearGradient><linearGradient id="K" x2="1" href="#A" gradientTransform="matrix(410,212.638,-95.594,184.321,150,391.362)"><stop stop-color="#1557b5" stop-opacity=".72"/><stop offset=".62" stop-color="#0f49a5" stop-opacity=".54"/><stop offset="1" stop-color="#356fb9" stop-opacity=".18"/></linearGradient></defs><g class="T"><path d="M0 0h1408v1024H0z" fill="url(#B)"/><path d="M0 0h245v1024H0z" fill="url(#D)" class="S"/><path d="M540 495C260.7 495 35 376.5 35 230S260.7-35 540-35s505 118.5 505 265-225.7 265-505 265z" filter="url(#E)" fill="url(#F)"/></g><path d="M958-40h450V80l-388 130z" opacity=".48" fill="#1f62b5" class="R"/><path d="m1408 667v357h-248c25-129 42-254 38-368 70 10 142 26 210 11z" opacity=".48" fill="#6fa0cc" class="R"/><path d="m96 500c46-50 130-56 218-30 106 32 172 92 211 159-106 3-235-19-346-67-47-20-74-42-83-62z" opacity=".34" fill="#b9d2e8" class="S"/><g class="T"><path d="m332.8 680.9c-57.9 5-105.9-5.1-107.4-22.7-1.5-17.7 44-36 101.8-41.1 57.9-5 105.9 5.1 107.4 22.7 1.5 17.7-44 36-101.8 41.1z" fill="url(#H)" class="R"/><path d="M352 680c-165.9 0-300-69.3-300-155s134.1-155 300-155 300 69.3 300 155-134.1 155-300 155z" filter="url(#E)" fill="url(#I)"/></g><path d="m525 605c41-161 205-278 453-386 80 151 142 336 202 596-250 7-468-47-628-175-14-12-23-24-27-35z" fill="url(#J)" class="R"/><path d="m526 616c68 60 154 108 238 168-98-25-186-70-250-133-17-19-9-37 12-35z" opacity=".46" fill="#b6d2e9" class="R"/><path d="m520 604c-70-94-196-149-370-190 125-31 270-30 410 2-21 54-34 116-40 188z" opacity=".58" fill="url(#K)" class="S"/><path d="m70 705c140 0 280 1 450-19 92 77 224 149 410 186-228 76-480 114-760 136-44-108-78-208-100-303z" opacity=".26" fill="#2e68b8" class="S"/><path d="M866 819c90 27 196 43 322 45l-26 160H830l36-205z" opacity=".22" fill="#6c9ccc" class="R"/><path d="m1170 660c65 10 145 34 238 84v136l-223-14c-1-72-6-142-15-206z" opacity=".22" fill="#91bad8" class="S"/><path d="m109 485c37-28 97-33 173-17-53 0-113 14-163 51-15-7-19-19-10-34z" opacity=".38" fill="#d5e5f1" class="R"/><path d="m472 704c39 41 106 79 200 113-86-15-164-53-213-98z" opacity=".23" fill="#d7e8f4" class="R"/><path d="M0 0h1408v1024H0z" opacity=".05" fill="#174fa9" class="T"/></svg>