<svg xmlns="http://www.w3.org/2000/svg" version="1.1" viewBox="14 60.76 228 188.24">
<path d="M0 0 C8.53623448 -0.04634803 17.07241635 -0.08188171 25.60874557 -0.10362434 C29.57254227 -0.1140599 33.53625286 -0.12821492 37.5 -0.15087891 C41.32550147 -0.17261545 45.15092012 -0.18457034 48.97647858 -0.18975449 C50.43571527 -0.19344879 51.89494744 -0.20066283 53.35414886 -0.21146011 C55.39863365 -0.225986 57.44277657 -0.22797751 59.48730469 -0.22705078 C60.65090515 -0.231492 61.81450562 -0.23593323 63.0133667 -0.24050903 C69.84240905 0.30942335 75.92382397 5.64899197 81 10 C82.58354853 11.93885998 83.75256441 13.81698772 85 16 C85.4125 15.39671875 85.825 14.7934375 86.25 14.171875 C90.31673104 8.54380972 93.55271283 5.60153693 100 3 C100 2.34 100 1.68 100 1 C103.54078641 -0.09561691 106.81899445 -0.12057444 110.51269531 -0.11352539 C111.47917496 -0.11374443 111.47917496 -0.11374443 112.46517944 -0.1139679 C114.58619603 -0.1132735 116.70712383 -0.10550336 118.828125 -0.09765625 C120.30214388 -0.09579039 121.77616338 -0.09436728 123.25018311 -0.09336853 C127.12338992 -0.08955661 130.99655903 -0.07973765 134.86975098 -0.06866455 C138.82462046 -0.05842193 142.77949606 -0.0538648 146.734375 -0.04882812 C154.48960049 -0.03811418 162.24479496 -0.02105369 170 0 C170 0.66 170 1.32 170 2 C171.08667969 2.60328125 171.08667969 2.60328125 172.1953125 3.21875 C176.1978173 5.76073076 178.45161265 9.40896516 181.07421875 13.26171875 C184.24422559 17.65947428 186.91976171 19.13963105 192 21 C194.79656139 23.35499907 195.83771178 24.51313533 197 28 C197.09726592 29.90408783 197.1349776 31.81142438 197.14044189 33.71798706 C197.14615204 34.90969513 197.15186218 36.1014032 197.15774536 37.32922363 C197.15942215 39.29296936 197.15942215 39.29296936 197.16113281 41.29638672 C197.16576164 42.68771496 197.17078638 44.07904194 197.17617798 45.47036743 C197.18929691 49.25139617 197.19574582 53.03240716 197.20018864 56.8134551 C197.20311989 59.1755672 197.20722477 61.53767444 197.21169281 63.89978409 C197.22536576 71.28999175 197.23503368 78.68018832 197.2388947 86.07040775 C197.24337657 94.60207385 197.26093121 103.13357984 197.2898953 111.66519725 C197.31150647 118.25976448 197.32159866 124.85428663 197.32293582 131.4488889 C197.32398416 135.38773003 197.32989815 139.3264206 197.34775543 143.26522446 C197.36422669 146.97034201 197.36639636 150.67519566 197.35761642 154.38033676 C197.35647822 156.38681708 197.37020247 158.39328861 197.3843689 160.39971924 C197.37601517 162.19574081 197.37601517 162.19574081 197.36749268 164.02804565 C197.36895924 165.06669706 197.3704258 166.10534847 197.3719368 167.17547417 C196.77916322 171.67705691 194.46524244 175.11229797 191 178 C187.14515898 179.28494701 183.50948836 179.13624477 179.49291992 179.12597656 C178.18998741 179.12877876 178.18998741 179.12877876 176.86073303 179.13163757 C174.97334782 179.13564231 173.08595776 179.13771648 171.19856834 179.13809967 C167.18541577 179.14151416 163.17242537 179.16287509 159.15932941 179.18333054 C151.6861947 179.22135949 144.21323274 179.25261462 136.73999023 179.25048828 C131.54268707 179.24970119 126.34597686 179.27306417 121.14882851 179.3123703 C119.16935199 179.3228324 117.18980705 179.3243528 115.21031761 179.31671906 C112.43798071 179.30709474 109.66743856 179.32828381 106.89526367 179.35644531 C106.07998199 179.34624863 105.26470032 179.33605194 104.42471313 179.32554626 C98.58848284 179.4316792 96.11467641 180.86012695 92 185 C91.34 185.66 90.68 186.32 90 187 C90 187.33 90 187.66 90 188 C86.7 188 83.4 188 80 188 C80 187.34 80 186.68 80 186 C78.02678947 184.6273318 76.02456848 183.29572383 74 182 C73.34 181.34 72.68 180.68 72 180 C69.04725086 179.81168527 66.18897147 179.74832729 63.23583984 179.77294922 C61.87477867 179.77251114 61.87477867 179.77251114 60.48622131 179.77206421 C57.47769714 179.77346102 54.46941858 179.78903872 51.4609375 179.8046875 C49.37871435 179.80841638 47.29648945 179.81126394 45.21426392 179.81326294 C39.72659483 179.82090923 34.23903116 179.84056625 28.75140381 179.8626709 C23.15459621 179.88310791 17.55777163 179.89226006 11.9609375 179.90234375 C0.97391195 179.92381121 -10.01303527 179.95795914 -21 180 C-21.33 179.34 -21.66 178.68 -22 178 C-22.99 177.62875 -22.99 177.62875 -24 177.25 C-24.66 176.8375 -25.32 176.425 -26 176 C-26.92332722 171.9571018 -27.12855764 168.05676889 -27.14044189 163.92124939 C-27.14615204 162.72541733 -27.15186218 161.52958527 -27.15774536 160.29751587 C-27.15942215 158.34994888 -27.15942215 158.34994888 -27.16113281 156.36303711 C-27.16576592 154.97126638 -27.17079125 153.5794969 -27.17617798 152.18772888 C-27.1892503 148.41927406 -27.19573596 144.65083701 -27.20018864 140.88236308 C-27.20312572 138.52676771 -27.20723156 136.17117713 -27.21169281 133.81558418 C-27.22534967 126.44140488 -27.23502706 119.06723662 -27.2388947 111.69304556 C-27.24338117 103.1868797 -27.26096382 94.68087407 -27.2898953 86.17475694 C-27.3115042 79.59286798 -27.32159844 73.01102416 -27.32293582 66.4291001 C-27.32398376 62.50036385 -27.32988993 58.5717786 -27.34775543 54.64307976 C-27.36422411 50.95023382 -27.36639764 47.25765266 -27.35761642 43.5647831 C-27.35647828 41.56548769 -27.37020204 39.5662011 -27.3843689 37.56695557 C-27.37879974 36.37394333 -27.37323059 35.18093109 -27.36749268 33.95176697 C-27.36895924 32.91701201 -27.3704258 31.88225706 -27.3719368 30.8161459 C-26.78791891 26.39421298 -24.49906224 22.74926319 -21 20 C-19.37384766 19.41605469 -19.37384766 19.41605469 -17.71484375 18.8203125 C-13.43466774 17.02319086 -11.39189927 14.24656705 -8.8125 10.5 C-6.18631969 6.79293484 -3.80224765 3.58727656 0 1 C0 0.67 0 0.34 0 0 Z " fill="#ECE8F5" transform="translate(43,61)"/>
<path d="M0 0 C8.53623448 -0.04634803 17.07241635 -0.08188171 25.60874557 -0.10362434 C29.57254227 -0.1140599 33.53625286 -0.12821492 37.5 -0.15087891 C41.32550147 -0.17261545 45.15092012 -0.18457034 48.97647858 -0.18975449 C50.43571527 -0.19344879 51.89494744 -0.20066283 53.35414886 -0.21146011 C55.39863365 -0.225986 57.44277657 -0.22797751 59.48730469 -0.22705078 C60.65090515 -0.231492 61.81450562 -0.23593323 63.0133667 -0.24050903 C69.52861029 0.28415361 73.59450603 4.48154464 78 9 C78.99 9.99 78.99 9.99 80 11 C82.34007545 18.13480632 82.08018636 25.17458347 81.5625 32.5625 C81.11217668 39.18359042 80.98805701 45.58758879 81.4921875 52.2109375 C82.4699561 65.71601986 81.8689578 79.30875998 81.60510254 92.83526611 C81.5334072 96.58345313 81.46920385 100.3317685 81.40429688 104.08007812 C81.27670242 111.38686101 81.14104094 118.69346295 81 126 C81.33 126 81.66 126 82 126 C82.495 136.395 82.495 136.395 83 147 C80.49348958 145.47005208 77.98697917 143.94010417 75.48046875 142.41015625 C71.27376123 140.01862646 68.08540888 139.87583295 63.31298828 139.87402344 C62.63783173 139.8721553 61.96267517 139.87028717 61.26705933 139.86836243 C59.80201728 139.86436179 58.336969 139.8622839 56.87192154 139.86190033 C53.75546253 139.85848095 50.63921144 139.83711487 47.52282524 139.81666946 C41.72173165 139.77866427 35.92086126 139.74738569 30.11962891 139.74951172 C26.08286892 139.75029909 22.04687187 139.72692705 18.01031113 139.6876297 C16.47379868 139.67717298 14.93719814 139.67564335 13.4006691 139.68328094 C11.24820779 139.69291319 9.09805379 139.67170781 6.94580078 139.64355469 C5.72240997 139.63990906 4.49901917 139.63626343 3.23855591 139.63250732 C-0.87358974 138.82938324 -2.34109957 137.15097028 -5 134 C-5.33 133.67 -5.66 133.34 -6 133 C-6.1190371 131.39243458 -6.1690425 129.77971279 -6.19186401 128.16790771 C-6.20887863 127.12198959 -6.22589325 126.07607147 -6.24342346 124.99845886 C-6.25703415 123.84106705 -6.27064484 122.68367523 -6.28466797 121.49121094 C-6.30259903 120.27990005 -6.32053009 119.06858917 -6.33900452 117.8205719 C-6.3963591 113.7918938 -6.44547507 109.76318667 -6.4921875 105.734375 C-6.50869437 104.34860466 -6.52521586 102.9628345 -6.54175186 101.57706451 C-6.60971307 95.81242145 -6.6747578 90.0477577 -6.73234367 84.28300095 C-6.81503194 76.01689166 -6.91475367 67.75139467 -7.03843391 59.48579383 C-7.12397547 53.67696783 -7.1902023 47.86811473 -7.24207985 42.05889153 C-7.27357546 38.58813558 -7.31351542 35.11795709 -7.37401962 31.64757538 C-7.4410331 27.77391958 -7.4681132 23.90054281 -7.49169922 20.02636719 C-7.51745529 18.8770723 -7.54321136 17.7277774 -7.56974792 16.5436554 C-7.570454 8.74139988 -7.570454 8.74139988 -4.5942688 4.87335205 C-3.7381601 4.25514587 -2.88205139 3.6369397 -2 3 C-1.34 2.34 -0.68 1.68 0 1 C0 0.67 0 0.34 0 0 Z " fill="#F0ECF9" transform="translate(43,61)"/>
<path d="M0 0 C-0.48714289 0.71776611 -0.97428577 1.43553223 -1.47619057 2.17504883 C-3.10779008 5.19982926 -3.37663324 6.80726655 -3.38095093 10.19921875 C-3.39364014 11.73848022 -3.39364014 11.73848022 -3.40658569 13.30883789 C-3.400513 14.42379639 -3.39444031 15.53875488 -3.38818359 16.6875 C-3.39606903 18.46145142 -3.39606903 18.46145142 -3.40411377 20.27124023 C-3.41504201 23.50683882 -3.41249901 26.7420682 -3.40297651 29.97766113 C-3.39536727 33.36792766 -3.40242903 36.75816998 -3.40713501 40.1484375 C-3.4125889 45.8411907 -3.40541065 51.53382705 -3.39111328 57.2265625 C-3.37478737 63.80282965 -3.38007614 70.37881774 -3.3965925 76.95507812 C-3.41021789 82.60703923 -3.41212191 88.25891645 -3.40427649 93.91088867 C-3.39960573 97.28406344 -3.39895857 100.65710715 -3.40888596 104.03027344 C-3.41649615 107.79120812 -3.40490124 111.55160539 -3.38818359 115.3125 C-3.39425629 116.4274585 -3.40032898 117.54241699 -3.40658569 118.69116211 C-3.39812622 119.71733643 -3.38966675 120.74351074 -3.38095093 121.80078125 C-3.37925431 123.13363159 -3.37925431 123.13363159 -3.37752342 124.4934082 C-2.90920385 127.60284705 -1.83505914 129.46303446 0 132 C3.67768728 134.45179152 6.43899092 134.28516199 10.69210815 134.26742554 C11.87897506 134.27422221 11.87897506 134.27422221 13.08981907 134.28115618 C15.7498796 134.29384974 18.40973669 134.29217664 21.06982422 134.29052734 C22.97346257 134.29650951 24.87709849 134.30331433 26.7807312 134.31088257 C31.95842302 134.32858161 37.13604877 134.33323959 42.31376791 134.33451414 C46.63295478 134.33641106 50.95212618 134.34376621 55.27130711 134.35085833 C65.46001346 134.36715474 75.64868446 134.37202614 85.83740234 134.37060547 C96.35466048 134.36940371 106.8717135 134.39050948 117.38891971 134.4220928 C126.41234806 134.44822667 135.43570931 134.45897398 144.45917523 134.45769465 C149.85120225 134.45718416 155.24304707 134.46291509 160.63503647 134.48405075 C165.70595971 134.50338448 170.77652603 134.50359096 175.8474617 134.48901749 C177.70948557 134.48692223 179.5715315 134.49167277 181.43351746 134.5037384 C183.97407532 134.5191359 186.51339409 134.50991985 189.05392456 134.49447632 C189.79215796 134.50476344 190.53039137 134.51505057 191.29099548 134.52564943 C194.8679672 134.47754254 196.87796914 134.07666746 199.93412971 132.15659523 C203.01354817 128.94194076 203.12616657 126.31484064 203.14044189 122.04801941 C203.14615204 121.02603958 203.15186218 120.00405975 203.15774536 118.95111084 C203.15886322 117.83053284 203.15998108 116.70995483 203.16113281 115.55541992 C203.16609772 114.37468399 203.17106262 113.19394806 203.17617798 111.97743225 C203.18828647 108.73763509 203.19574481 105.49787401 203.20018864 102.25805831 C203.20312138 100.23296757 203.20722659 98.20788247 203.21169281 96.18279457 C203.22536522 89.84390482 203.23503294 83.50502799 203.2388947 77.16612452 C203.24337399 69.85415769 203.26091679 62.54237793 203.2898953 55.23046798 C203.31152863 49.57515494 203.32159987 43.91989446 203.32293582 38.26454049 C203.32398274 34.88848286 203.32986609 31.51260113 203.34775543 28.13658714 C203.36479416 24.36850152 203.36294064 20.6008721 203.35644531 16.83276367 C203.37026749 15.16100571 203.37026749 15.16100571 203.3843689 13.45547485 C203.35378856 7.79731006 203.1302214 3.78825873 200 -1 C203.97007156 -0.72301826 205.72389212 -0.23315777 208.8125 2.375 C211.98758143 6.18509772 212.12667673 8.91514833 212.14044189 13.71798706 C212.14615204 14.90969513 212.15186218 16.1014032 212.15774536 17.32922363 C212.15942215 19.29296936 212.15942215 19.29296936 212.16113281 21.29638672 C212.16576164 22.68771496 212.17078638 24.07904194 212.17617798 25.47036743 C212.18929691 29.25139617 212.19574582 33.03240716 212.20018864 36.8134551 C212.20311989 39.1755672 212.20722477 41.53767444 212.21169281 43.89978409 C212.22536576 51.28999175 212.23503368 58.68018832 212.2388947 66.07040775 C212.24337657 74.60207385 212.26093121 83.13357984 212.2898953 91.66519725 C212.31150647 98.25976448 212.32159866 104.85428663 212.32293582 111.4488889 C212.32398416 115.38773003 212.32989815 119.3264206 212.34775543 123.26522446 C212.36422669 126.97034201 212.36639636 130.67519566 212.35761642 134.38033676 C212.35647822 136.38681708 212.37020247 138.39328861 212.3843689 140.39971924 C212.37601517 142.19574081 212.37601517 142.19574081 212.36749268 144.02804565 C212.36895924 145.06669706 212.3704258 146.10534847 212.3719368 147.17547417 C211.77916322 151.67705691 209.46524244 155.11229797 206 158 C202.14515898 159.28494701 198.50948836 159.13624477 194.49291992 159.12597656 C193.18998741 159.12877876 193.18998741 159.12877876 191.86073303 159.13163757 C189.97334782 159.13564231 188.08595776 159.13771648 186.19856834 159.13809967 C182.18541577 159.14151416 178.17242537 159.16287509 174.15932941 159.18333054 C166.6861947 159.22135949 159.21323274 159.25261462 151.73999023 159.25048828 C146.54268707 159.24970119 141.34597686 159.27306417 136.14882851 159.3123703 C134.16935199 159.3228324 132.18980705 159.3243528 130.21031761 159.31671906 C127.43798071 159.30709474 124.66743856 159.32828381 121.89526367 159.35644531 C121.07998199 159.34624863 120.26470032 159.33605194 119.42471313 159.32554626 C113.58848284 159.4316792 111.11467641 160.86012695 107 165 C106.34 165.66 105.68 166.32 105 167 C105 167.33 105 167.66 105 168 C101.7 168 98.4 168 95 168 C95 167.34 95 166.68 95 166 C93.02678947 164.6273318 91.02456848 163.29572383 89 162 C88.34 161.34 87.68 160.68 87 160 C84.04725086 159.81168527 81.18897147 159.74832729 78.23583984 159.77294922 C76.87477867 159.77251114 76.87477867 159.77251114 75.48622131 159.77206421 C72.47769714 159.77346102 69.46941858 159.78903872 66.4609375 159.8046875 C64.37871435 159.80841638 62.29648945 159.81126394 60.21426392 159.81326294 C54.72659483 159.82090923 49.23903116 159.84056625 43.75140381 159.8626709 C38.15459621 159.88310791 32.55777163 159.89226006 26.9609375 159.90234375 C15.97391195 159.92381121 4.98696473 159.95795914 -6 160 C-6.33 159.34 -6.66 158.68 -7 158 C-7.99 157.62875 -7.99 157.62875 -9 157.25 C-9.66 156.8375 -10.32 156.425 -11 156 C-11.92332722 151.9571018 -12.12855764 148.05676889 -12.14044189 143.92124939 C-12.14615204 142.72541733 -12.15186218 141.52958527 -12.15774536 140.29751587 C-12.15942215 138.34994888 -12.15942215 138.34994888 -12.16113281 136.36303711 C-12.16576592 134.97126638 -12.17079125 133.5794969 -12.17617798 132.18772888 C-12.1892503 128.41927406 -12.19573596 124.65083701 -12.20018864 120.88236308 C-12.20312572 118.52676771 -12.20723156 116.17117713 -12.21169281 113.81558418 C-12.22534967 106.44140488 -12.23502706 99.06723662 -12.2388947 91.69304556 C-12.24338117 83.1868797 -12.26096382 74.68087407 -12.2898953 66.17475694 C-12.3115042 59.59286798 -12.32159844 53.01102416 -12.32293582 46.4291001 C-12.32398376 42.50036385 -12.32988993 38.5717786 -12.34775543 34.64307976 C-12.36422411 30.95023382 -12.36639764 27.25765266 -12.35761642 23.5647831 C-12.35647828 21.56548769 -12.37020204 19.5662011 -12.3843689 17.56695557 C-12.37879974 16.37394333 -12.37323059 15.18093109 -12.36749268 13.95176697 C-12.36895924 12.91701201 -12.3704258 11.88225706 -12.3719368 10.8161459 C-11.77807387 6.31967052 -9.4613121 2.88442675 -6 0 C-3 -1 -3 -1 0 0 Z " fill="#3FA9EF" transform="translate(28,81)"/>
<path d="M0 0 C0.66 0 1.32 0 2 0 C2.00054477 0.63445384 2.00108953 1.26890768 2.00165081 1.92258739 C2.01662073 17.36314125 2.05907567 32.8033382 2.13209057 48.24371624 C2.16673799 55.7106064 2.19209574 63.177312 2.19555664 70.64428711 C2.19859692 77.15283366 2.21909542 83.6610515 2.26052457 90.16947109 C2.28185116 93.61546605 2.29445735 97.06099375 2.28615379 100.50705528 C2.27720937 104.35487764 2.30724362 108.20186065 2.34057617 112.04956055 C2.33195053 113.19107574 2.32332489 114.33259094 2.31443787 115.50869751 C2.38439482 120.31464313 2.43005265 123.13440784 5.11404419 127.21064758 C8.63942025 129.39645381 10.69887868 129.60904016 14.8347168 129.58007812 C15.50213394 129.58253036 16.16955109 129.5849826 16.85719299 129.58750916 C18.30039147 129.58967463 19.74364297 129.58045072 21.18671227 129.5610199 C23.4797624 129.53084811 25.77095327 129.53200784 28.06416321 129.5411377 C33.76149695 129.55738953 39.45825431 129.52020525 45.15545654 129.48455811 C49.96827876 129.45646887 54.78030654 129.44904086 59.5931797 129.46812439 C61.83698941 129.46873644 64.07910676 129.43969406 66.32267761 129.40930176 C74.41031092 129.38111868 81.38080837 129.93113508 88 135 C89.485 136.98 89.485 136.98 91 139 C91.33 96.43 91.66 53.86 92 10 C92.66 10 93.32 10 94 10 C94.33 52.57 94.66 95.14 95 139 C96.32 137.35 97.64 135.7 99 134 C106.53316938 128.66054944 115.03294458 129.30380244 123.90625 129.21484375 C125.55718593 129.18711822 127.20810578 129.15842032 128.85900879 129.12879944 C132.30847263 129.07163045 135.75774025 129.02904845 139.20751953 128.99633789 C143.61295126 128.95299276 148.01652123 128.86888466 152.42108917 128.77324581 C155.82684756 128.70458495 159.23261208 128.65988862 162.63883972 128.6220417 C164.26234619 128.60074822 165.88577074 128.57162442 167.50898743 128.53428459 C182.85737043 128.20252826 182.85737043 128.20252826 188.45373535 132.82301331 C190.26180569 134.19928142 191.80077546 134.52313027 194 135 C194.33 135.33 194.66 135.66 195 136 C195.33 96.4 195.66 56.8 196 16 C196.33 16 196.66 16 197 16 C197.07009498 31.82044619 197.12299053 47.64085043 197.15543652 63.46141338 C197.17090249 70.80725484 197.19198676 78.15299979 197.22631836 85.4987793 C197.25622909 91.90169919 197.27557697 98.30454918 197.28226548 104.707537 C197.28617494 108.09759507 197.29535683 111.48745317 197.31719017 114.87744713 C197.33891456 118.6628043 197.34196893 122.44774498 197.34057617 126.2331543 C197.351362 127.35596802 197.36214783 128.47878174 197.3732605 129.63562012 C197.36913651 130.66902023 197.36501251 131.70242035 197.36076355 132.76713562 C197.36352893 133.66219661 197.36629431 134.5572576 197.36914349 135.47944164 C196.79055278 139.4301321 195.01556472 141.93173357 192.3003521 144.78784943 C188.99372533 146.5302477 185.84281252 146.42070962 182.19436646 146.39440918 C181.40297299 146.40050028 180.61157953 146.40659139 179.79620445 146.41286707 C177.14149739 146.42953049 174.48726823 146.42471655 171.83251953 146.41992188 C169.9303538 146.42726031 168.02819254 146.43584587 166.1260376 146.44558716 C160.95657566 146.46783654 155.78727296 146.4707321 150.61776972 146.46883965 C146.30359027 146.46872009 141.98944475 146.47727805 137.67527473 146.48561716 C127.4975235 146.50486386 117.31985429 146.50773056 107.14208984 146.50097656 C96.6401126 146.49433567 86.13848658 146.51719928 75.63658059 146.55429029 C66.62244741 146.58497238 57.60842729 146.59634891 48.59424293 146.59245348 C43.20943053 146.59038431 37.82489133 146.59589109 32.44012833 146.62034607 C27.3756801 146.6425857 22.31180329 146.64075843 17.2473526 146.62041855 C15.38897382 146.61700349 13.53055679 146.62211889 11.67222977 146.63640213 C9.13401887 146.65456423 6.59775275 146.64186968 4.05960083 146.62145996 C3.32496239 146.63397781 2.59032395 146.64649566 1.83342373 146.65939283 C-2.00069117 146.59334032 -4.47555353 145.99533854 -7.44122505 143.64865875 C-10.83188773 140.13888999 -11.12397504 137.76847204 -11.1673584 133.08166504 C-11.17884918 132.06691101 -11.19033997 131.05215698 -11.20217896 130.00665283 C-11.20958099 128.89393005 -11.21698303 127.78120728 -11.22460938 126.63476562 C-11.23599945 125.46206116 -11.24738953 124.28935669 -11.25912476 123.08111572 C-11.29421647 119.18952399 -11.32090886 115.29792833 -11.34375 111.40625 C-11.34769587 110.74287062 -11.35164173 110.07949123 -11.35570717 109.39600945 C-11.39214028 103.13172225 -11.42356495 96.86742353 -11.44481659 90.60306549 C-11.47233912 82.60985995 -11.52300062 74.61754666 -11.60529089 66.62471247 C-11.66127315 60.99481192 -11.69008026 55.3651519 -11.6992898 49.73498297 C-11.70552017 46.37772605 -11.72699756 43.02234123 -11.77067566 39.66523743 C-11.8170055 35.90957779 -11.8188658 32.15627388 -11.81054688 28.40039062 C-11.83414276 27.30386169 -11.85773865 26.20733276 -11.88204956 25.07757568 C-11.7927678 16.70978682 -9.05445069 11.5632766 -4 5 C-3.3049511 4.07110207 -2.60990219 3.14220413 -1.8937912 2.18515778 C-1.2688401 1.46405571 -0.64388901 0.74295364 0 0 Z " fill="#B8B4D0" transform="translate(35,70)"/>
<path d="M0 0 C0.70899445 0.72912346 0.70899445 0.72912346 1.43231201 1.47297668 C5.24041006 3.73768117 8.72716431 3.4396031 13.08300781 3.43237305 C14.00042755 3.4425647 14.91784729 3.45275635 15.86306763 3.46325684 C18.89314851 3.49343264 21.92291348 3.50265986 24.953125 3.51171875 C27.05492202 3.52856202 29.15670895 3.54671178 31.25848389 3.56611633 C36.78878627 3.61366058 42.31904773 3.64344142 47.8494873 3.66955566 C53.49349043 3.69933879 59.13735249 3.74587685 64.78125 3.79101562 C75.85409294 3.87709914 86.92696487 3.94442205 98 4 C98 4.66 98 5.32 98 6 C100.65228812 7.07525194 103.28368454 8.09456151 106 9 C106 9.66 106 10.32 106 11 C113.21157864 10.67948539 117.74155286 9.25844714 123 4 C126.01149391 3.78201123 128.93366611 3.68854171 131.94775391 3.68115234 C132.87463516 3.67110672 133.80151642 3.6610611 134.75648499 3.65071106 C137.82983766 3.61974213 140.9031027 3.60280593 143.9765625 3.5859375 C146.10363527 3.56723687 148.23070054 3.54766431 150.35775757 3.5272522 C155.96370023 3.4758082 161.56966697 3.43624826 167.17572021 3.39910889 C172.89324969 3.35914597 178.61067792 3.30801855 184.328125 3.2578125 C195.55201234 3.16090803 206.77595668 3.07654988 218 3 C218.39815997 4.98810959 218.72773372 6.99077573 219 9 C217.21220342 11.59230504 216.03997185 11.98667605 213 13 C210.15630136 13.09479112 207.33664173 13.13324643 204.49291992 13.12597656 C203.18998741 13.12877876 203.18998741 13.12877876 201.86073303 13.13163757 C199.97334782 13.13564231 198.08595776 13.13771648 196.19856834 13.13809967 C192.18541577 13.14151416 188.17242537 13.16287509 184.15932941 13.18333054 C176.6861947 13.22135949 169.21323274 13.25261462 161.73999023 13.25048828 C156.54268707 13.24970119 151.34597686 13.27306417 146.14882851 13.3123703 C144.16935199 13.3228324 142.18980705 13.3243528 140.21031761 13.31671906 C137.43798071 13.30709474 134.66743856 13.32828381 131.89526367 13.35644531 C131.07998199 13.34624863 130.26470032 13.33605194 129.42471313 13.32554626 C123.58848284 13.4316792 121.11467641 14.86012695 117 19 C116.34 19.66 115.68 20.32 115 21 C115 21.33 115 21.66 115 22 C111.7 22 108.4 22 105 22 C105 21.34 105 20.68 105 20 C103.02678947 18.6273318 101.02456848 17.29572383 99 16 C98.01 15.01 98.01 15.01 97 14 C94.20050163 13.78231982 91.49700273 13.68857348 88.69482422 13.68115234 C87.83621796 13.67110672 86.97761169 13.6610611 86.09298706 13.65071106 C83.2468942 13.61974974 80.40089594 13.60280811 77.5546875 13.5859375 C75.58455585 13.56723625 73.6144323 13.54766364 71.64431763 13.5272522 C66.45266482 13.47581471 61.26098601 13.4362513 56.06921387 13.39910889 C50.77394111 13.35914189 45.4787776 13.30801632 40.18359375 13.2578125 C29.78913911 13.16091575 19.39462295 13.07655513 9 13 C9 12.34 9 11.68 9 11 C8.401875 10.731875 7.80375 10.46375 7.1875 10.1875 C5.01474908 9.00800664 3.69381635 7.770808 2 6 C1.34 5.67 0.68 5.34 0 5 C0 3.35 0 1.7 0 0 Z " fill="#446AC9" transform="translate(18,227)"/>
<path d="M0 0 C6.32035508 5.74577735 12.20749563 12.03491795 12.84178162 20.87210083 C12.86182808 23.05678818 12.84401426 25.24204734 12.79467773 27.42626953 C12.79569992 28.62741898 12.79672211 29.82856842 12.79777527 31.06611633 C12.79376152 34.32867867 12.75890098 37.58908139 12.70975757 40.85121775 C12.6657068 44.27171674 12.66186376 47.69226769 12.65357971 51.11300659 C12.63190738 57.57648962 12.57458155 64.03913418 12.50413328 70.5022496 C12.42562524 77.86618855 12.38733736 85.23016961 12.35226524 92.59442353 C12.27928925 107.73008117 12.15633268 122.86495634 12 138 C11.07960937 137.53207031 11.07960937 137.53207031 10.140625 137.0546875 C8.00975272 135.96632412 8.00975272 135.96632412 5.75 135.125 C2.06331635 133.61681123 -1.45495926 131.81210519 -5 130 C-4.0409375 128.824375 -4.0409375 128.824375 -3.0625 127.625 C-0.28294595 124.08738575 0.12474904 122.50356198 0.12025452 118.0899353 C0.12231651 116.53339989 0.12231651 116.53339989 0.12442017 114.94541931 C0.12082489 113.80246902 0.11722961 112.65951874 0.11352539 111.48193359 C0.11367142 110.28195236 0.11381744 109.08197113 0.1139679 107.84562683 C0.11338957 104.55037139 0.10836565 101.25517818 0.10139394 97.95993376 C0.09515327 94.51793824 0.09455604 91.07594195 0.09336853 87.63394165 C0.09025732 81.11392065 0.08204676 74.59391636 0.07201904 68.07390273 C0.06085138 60.65199262 0.05534581 53.23008173 0.05032361 45.80816531 C0.03986398 30.53876718 0.0222686 15.26938575 0 0 Z " fill="#D9DAE7" transform="translate(219,69)"/>
<path d="M0 0 C3.97007156 0.27698174 5.72389212 0.76684223 8.8125 3.375 C11.66332689 6.79599227 12.12494948 9.17681104 12.12698364 13.48486328 C12.12980347 14.40391449 12.13262329 15.3229657 12.13552856 16.26986694 C12.13350433 17.27651398 12.1314801 18.28316101 12.12939453 19.3203125 C12.13114685 20.38263092 12.13289917 21.44494934 12.13470459 22.53945923 C12.13912085 26.06798925 12.13618255 29.59646943 12.1328125 33.125 C12.1334864 35.58626312 12.13445715 38.04752617 12.13571167 40.50878906 C12.13718899 45.68392568 12.13503594 50.85904507 12.13037109 56.03417969 C12.12472154 62.61812746 12.12792197 69.20203403 12.13394356 75.78598022 C12.1375893 80.88057759 12.13639151 85.9751655 12.13381577 91.06976318 C12.13315504 93.49346929 12.13394455 95.91717629 12.13629532 98.34088135 C12.14475314 109.52963587 12.12371895 120.71142353 11.61669922 131.890625 C11.58635653 132.6627533 11.55601383 133.43488159 11.52475166 134.23040771 C11.32631001 137.92125648 11.02691822 140.85214872 9 144 C7.91967806 138.57138226 7.71072544 133.20148234 7.5 127.6875 C7.2441457 121.07793061 6.80335658 114.56744007 6 108 C5.34 108 4.68 108 4 108 C3.99413376 106.7354599 3.98826752 105.4709198 3.98222351 104.1680603 C3.92500534 92.24972642 3.85224819 80.33157515 3.76428509 68.41342735 C3.71956175 62.28621104 3.68030973 56.15906153 3.65356445 50.03173828 C3.6275514 44.11829636 3.5871626 38.20511121 3.53681374 32.29182816 C3.52013161 30.03603942 3.50862573 27.78020626 3.50238609 25.52436447 C3.49275992 22.36411382 3.46471734 19.2045221 3.43237305 16.04443359 C3.43380814 15.11222992 3.43524323 14.18002625 3.4367218 13.21957397 C3.36190189 8.04888726 2.80573629 4.51862677 0 0 Z " fill="#51CEFF" transform="translate(228,80)"/>
<path d="M0 0 C-0.72912346 0.96434212 -0.72912346 0.96434212 -1.47297668 1.94816589 C-3.50779079 6.01484584 -3.44018931 9.34363158 -3.43237305 13.8293457 C-3.4425647 14.70789719 -3.45275635 15.58644867 -3.46325684 16.49162292 C-3.49337498 19.38640734 -3.50265101 22.28086077 -3.51171875 25.17578125 C-3.5285663 27.18646849 -3.54671664 29.19714521 -3.56611633 31.20780945 C-3.61361409 36.49314077 -3.643425 41.77842941 -3.66955566 47.06390381 C-3.69936222 52.460006 -3.74589226 57.85596112 -3.79101562 63.25195312 C-3.87704626 73.83455848 -3.94439272 84.41719411 -4 95 C-5.485 95.495 -5.485 95.495 -7 96 C-8.21869929 98.50447516 -8.21869929 98.50447516 -9 101 C-12.72305033 95.4154245 -12.15110661 88.19253818 -12.16113281 81.64379883 C-12.16609772 80.85086929 -12.17106262 80.05793976 -12.17617798 79.24098206 C-12.19065591 76.64632267 -12.19757388 74.0517242 -12.203125 71.45703125 C-12.20595238 70.56593847 -12.20877975 69.6748457 -12.21169281 68.75675011 C-12.22661945 64.0501514 -12.23589273 59.34358289 -12.24023438 54.63696289 C-12.24573969 49.7813792 -12.26982938 44.92607299 -12.29820633 40.07057667 C-12.31682605 36.32764366 -12.32203774 32.58477801 -12.32357025 28.8418026 C-12.32659387 27.05125076 -12.33461258 25.26070002 -12.34775543 23.47019386 C-12.36481793 20.96925138 -12.3629365 18.46899471 -12.35644531 15.96801758 C-12.3656601 15.23180176 -12.37487488 14.49558594 -12.3843689 13.73706055 C-12.34043895 8.33157212 -10.95940848 5.28597656 -7.5 1.25 C-4.74914682 -1.04237765 -3.36078755 -1.12026252 0 0 Z " fill="#53C5F2" transform="translate(28,81)"/>
<path d="M0 0 C2.93200474 2.85276137 5.64315404 5.65079784 8 9 C9.32 7.68 10.64 6.36 12 5 C13.2470821 8.74124629 12.60068608 11.12132512 12 15 C11.89284798 17.14490041 11.82558793 19.29210037 11.79467773 21.43945312 C11.77473755 22.68473282 11.75479736 23.93001251 11.73425293 25.21302795 C11.71720292 26.56909992 11.70032173 27.92517402 11.68359375 29.28125 C11.66285785 30.71443615 11.64181365 32.14761786 11.6204834 33.58079529 C11.56474009 37.42483548 11.51530648 41.268932 11.46757126 45.11307907 C11.43750542 47.49956976 11.40568217 49.88603085 11.37332153 52.27249146 C10.97433035 81.84933654 10.88031959 111.42052616 11 141 C10.34 141.33 9.68 141.66 9 142 C9 99.1 9 56.2 9 12 C8.34 12 7.68 12 7 12 C7 54.9 7 97.8 7 142 C5 140 5 140 4.9375 136.0625 C4.95683594 135.27101562 4.97617188 134.47953125 4.99609375 133.6640625 C5.00280754 129.08525796 4.47625927 124.54997695 4 120 C3.67 120 3.34 120 3 120 C3.01474869 119.22200043 3.02949738 118.44400085 3.04469299 117.64242554 C3.18445916 110.20301841 3.31731224 102.76353135 3.4429636 95.32387352 C3.50774476 91.50180891 3.57492655 87.67982227 3.64819336 83.85791016 C3.93445814 68.84697578 4.18840171 53.89903947 3.33714294 38.89935303 C2.9458665 31.89284868 3.21262768 25.07862104 3.859375 18.09375 C4.28367787 12.20885361 3.3911532 8.40659763 1 3 C0.67 2.01 0.34 1.02 0 0 Z " fill="#D4CDE1" transform="translate(120,68)"/>
<path d="M0 0 C-0.54299687 3.80097811 -2.07276772 5.57457897 -5 8 C-8.76598244 9.52859605 -11.76909748 8.55691436 -15.625 7.625 C-21.424343 6.29648942 -27.06749565 5.39641158 -33 5 C-33 5.66 -33 6.32 -33 7 C-52.67345643 7.23024851 -72.3366315 6.55323455 -92 6 C-92.33 6.66 -92.66 7.32 -93 8 C-94.32 7.67 -95.64 7.34 -97 7 C-97 7.99 -97 8.98 -97 10 C-97.33 10.66 -97.66 11.32 -98 12 C-114.83333333 9.36979167 -114.83333333 9.36979167 -119 4.8125 C-119.33 4.214375 -119.66 3.61625 -120 3 C-119.236875 3.309375 -118.47375 3.61875 -117.6875 3.9375 C-115.81210323 4.67893593 -113.91315348 5.36228217 -112 6 C-112 6.66 -112 7.32 -112 8 C-104.78842136 7.67948539 -100.25844714 6.25844714 -95 1 C-92.05958154 0.78209305 -89.21062317 0.68855096 -86.26757812 0.68115234 C-84.91133583 0.66608391 -84.91133583 0.66608391 -83.5276947 0.65071106 C-80.52888644 0.6197379 -77.53016812 0.60280251 -74.53125 0.5859375 C-72.45380883 0.56723415 -70.37637531 0.54766137 -68.2989502 0.5272522 C-62.82200644 0.47580314 -57.34503793 0.43625127 -51.86798096 0.39910889 C-46.29083041 0.35918619 -40.71378454 0.30801549 -35.13671875 0.2578125 C-5.96408574 0 -5.96408574 0 0 0 Z " fill="#366ACE" transform="translate(236,230)"/>
<path d="M0 0 C0.99 0.495 0.99 0.495 2 1 C1.11021258 3.22446856 0.42289947 4.69277331 -1.53735352 6.11685181 C-5.19551737 7.42873348 -8.81460732 7.27465088 -12.65234375 7.25537109 C-13.52432404 7.25899155 -14.39630432 7.262612 -15.29470825 7.26634216 C-17.18589228 7.27322974 -19.07709615 7.2757428 -20.96829224 7.27439499 C-23.9606879 7.27343002 -26.95272412 7.28636763 -29.94506836 7.30337524 C-38.45195755 7.34966334 -46.95880952 7.37426429 -55.46582031 7.38085938 C-60.67066961 7.38586754 -65.87514256 7.41007972 -71.0798645 7.44618607 C-73.0637893 7.4559981 -75.04776577 7.45830839 -77.03170776 7.45301437 C-79.80410144 7.44596207 -82.57536906 7.46318704 -85.34765625 7.48583984 C-86.57900803 7.47358116 -86.57900803 7.47358116 -87.8352356 7.46107483 C-91.57109802 7.51547239 -93.57454549 7.65971713 -96.54077148 10.03213501 C-97.02231689 10.68153046 -97.5038623 11.3309259 -98 12 C-98.66 11.67 -99.32 11.34 -100 11 C-99.2575 10.1028125 -99.2575 10.1028125 -98.5 9.1875 C-96.71723582 7.02970006 -96.71723582 7.02970006 -97 4 C-96.34 3.67 -95.68 3.34 -95 3 C-95 3.66 -95 4.32 -95 5 C-94.38390869 4.50725586 -93.76781738 4.01451172 -93.13305664 3.50683594 C-88.6599896 1.35552527 -84.76248649 1.71307254 -79.87109375 1.890625 C-78.8856105 1.91469421 -77.90012726 1.93876343 -76.88478088 1.96356201 C-73.73509964 2.04450613 -70.58654105 2.14736887 -67.4375 2.25 C-65.34573801 2.30473528 -63.25394061 2.35813448 -61.16210938 2.41015625 C-51.41710962 2.66860895 -41.69881442 2.96398729 -32 4 C-32 3.34 -32 2.68 -32 2 C-24.47009686 1.52162968 -17.69704924 2.77397977 -10.41796875 4.5390625 C-6.75717204 5.03274709 -5.15780499 4.84819466 -2 3 C-1.34 2.01 -0.68 1.02 0 0 Z " fill="#4669C8" transform="translate(235,233)"/>
<path d="M0 0 C0.70899445 0.72912346 0.70899445 0.72912346 1.43231201 1.47297668 C5.24041006 3.73768117 8.72716431 3.4396031 13.08300781 3.43237305 C14.00042755 3.4425647 14.91784729 3.45275635 15.86306763 3.46325684 C18.89314851 3.49343264 21.92291348 3.50265986 24.953125 3.51171875 C27.05492202 3.52856202 29.15670895 3.54671178 31.25848389 3.56611633 C36.78878627 3.61366058 42.31904773 3.64344142 47.8494873 3.66955566 C53.49349043 3.69933879 59.13735249 3.74587685 64.78125 3.79101562 C75.85409294 3.87709914 86.92696487 3.94442205 98 4 C97.67 4.66 97.34 5.32 97 6 C94.0703125 5.95117188 94.0703125 5.95117188 91.140625 5.90234375 C89.02907054 5.92172828 89.02907054 5.92172828 87.16799927 6.49227905 C84.78335092 7.05073677 82.61945594 7.16695728 80.17138672 7.22119141 C79.21714813 7.24436432 78.26290955 7.26753723 77.27975464 7.29141235 C76.25673248 7.3112619 75.23371033 7.33111145 74.1796875 7.3515625 C72.59717697 7.38629166 72.59717697 7.38629166 70.98269653 7.42172241 C68.75527615 7.46929758 66.52780487 7.51453931 64.30029297 7.55761719 C60.88098818 7.6248822 57.46202831 7.70259442 54.04296875 7.78125 C51.88022132 7.82615085 49.71746114 7.8704426 47.5546875 7.9140625 C46.01408157 7.94990952 46.01408157 7.94990952 44.44235229 7.98648071 C43.49441803 8.0033493 42.54648376 8.0202179 41.56982422 8.03759766 C40.73361542 8.05456696 39.89740662 8.07153625 39.03585815 8.08901978 C37 8 37 8 35 7 C34.67 7.66 34.34 8.32 34 9 C33.23816406 8.97679687 32.47632813 8.95359375 31.69140625 8.9296875 C25.83553514 8.82733769 20.63995837 9.13077744 14.9609375 10.53515625 C12.12494972 11.20743224 9.89025419 11.45981317 7 11 C4.25 8.5625 4.25 8.5625 2 6 C1.34 5.67 0.68 5.34 0 5 C0 3.35 0 1.7 0 0 Z " fill="#3377D6" transform="translate(18,227)"/>
<path d="M0 0 C3.97007156 0.27698174 5.72389212 0.76684223 8.8125 3.375 C12.04106323 7.24927587 12.1257818 10.04389955 12.12939453 14.92993164 C12.13254669 16.15293472 12.13569885 17.37593781 12.13894653 18.63600159 C12.13715364 19.97738683 12.13510192 21.31877176 12.1328125 22.66015625 C12.13348718 24.0476432 12.13445857 25.43513003 12.13571167 26.82261658 C12.13718826 29.74218869 12.13504022 32.66173027 12.13037109 35.58129883 C12.12475243 39.26924955 12.12798826 42.95712684 12.13382339 46.64507484 C12.15358561 61.45214582 12.13929212 76.22683281 11 91 C8.78168444 87.67252666 8.74262936 86.59410568 8.71289062 82.71264648 C8.69947632 81.62978867 8.68606201 80.54693085 8.67224121 79.43125916 C8.66432556 77.66897728 8.66432556 77.66897728 8.65625 75.87109375 C8.6416272 74.65285416 8.62700439 73.43461456 8.61193848 72.17945862 C8.56535886 68.26550636 8.53127625 64.35160261 8.5 60.4375 C10.31543679 29.08521568 10.31543679 29.08521568 0 1 C0 0.67 0 0.34 0 0 Z " fill="#68DEFD" transform="translate(228,80)"/>
<path d="M0 0 C-0.46277344 0.59683594 -0.92554688 1.19367188 -1.40234375 1.80859375 C-3.70725183 6.41277444 -4.00797448 10.98442749 -4.5625 16.0625 C-4.80827064 18.1317041 -5.05565152 20.20071761 -5.3046875 22.26953125 C-5.42166992 23.25904785 -5.53865234 24.24856445 -5.65917969 25.26806641 C-6.1875563 29.50340616 -6.90393193 33.69152833 -7.66796875 37.890625 C-8.07774643 40.13802731 -8.07774643 40.13802731 -8 43 C-8.0671049 44.99369368 -8.14096247 46.98716329 -8.21875 48.98046875 C-8.26386719 50.14384766 -8.30898438 51.30722656 -8.35546875 52.50585938 C-8.40316406 53.72080078 -8.45085938 54.93574219 -8.5 56.1875 C-8.54769531 57.41404297 -8.59539063 58.64058594 -8.64453125 59.90429688 C-8.76250485 62.93621841 -8.8810158 65.96811798 -9 69 C-9.33 69 -9.66 69 -10 69 C-10.86206508 64.4604626 -11.18697845 60.07766993 -11.31640625 55.4609375 C-11.33736862 54.7458905 -11.35833099 54.03084351 -11.37992859 53.29412842 C-11.44581269 50.98785723 -11.50494685 48.68149328 -11.5625 46.375 C-11.58268188 45.59187439 -11.60286377 44.80874878 -11.62365723 44.00189209 C-11.74251073 39.35553005 -11.85102129 34.70901252 -11.95318604 30.06225586 C-11.99537998 28.20352197 -12.04301017 26.34491341 -12.09130859 24.48632812 C-12.16103199 21.69916866 -12.21080854 18.91272887 -12.25 16.125 C-12.2713501 15.34946777 -12.2927002 14.57393555 -12.31469727 13.77490234 C-12.34884162 8.32794605 -10.98282773 5.31329902 -7.5 1.25 C-4.74914682 -1.04237765 -3.36078755 -1.12026252 0 0 Z " fill="#5CD0F7" transform="translate(28,81)"/>
<path d="M0 0 C0.33 0 0.66 0 1 0 C1.07009498 15.82044619 1.12299053 31.64085043 1.15543652 47.46141338 C1.17090249 54.80725484 1.19198676 62.15299979 1.22631836 69.4987793 C1.25622909 75.90169919 1.27557697 82.30454918 1.28226548 88.707537 C1.28617494 92.09759507 1.29535683 95.48745317 1.31719017 98.87744713 C1.33891456 102.6628043 1.34196893 106.44774498 1.34057617 110.2331543 C1.351362 111.35596802 1.36214783 112.47878174 1.3732605 113.63562012 C1.36707451 115.18572029 1.36707451 115.18572029 1.36076355 116.76713562 C1.36352893 117.66219661 1.36629431 118.5572576 1.36914349 119.47944164 C0.91178215 122.60236264 -0.15624367 124.45527094 -2 127 C-3.485 127.99 -3.485 127.99 -5 129 C-5.309375 128.29875 -5.61875 127.5975 -5.9375 126.875 C-9.95173743 121.27939631 -16.33316214 117.59424384 -23 116 C-25.32694964 115.62468554 -27.65976685 115.28082798 -30 115 C-30 114.67 -30 114.34 -30 114 C-14.21876652 112.06564978 -14.21876652 112.06564978 -9.25 115.375 C-8.69828125 115.83648437 -8.1465625 116.29796875 -7.578125 116.7734375 C-5.7511425 118.19341895 -4.23918772 118.52017406 -2 119 C-1.505 119.495 -1.505 119.495 -1 120 C-0.505 60.6 -0.505 60.6 0 0 Z " fill="#BCC9E4" transform="translate(231,86)"/>
<path d="M0 0 C7.26 0 14.52 0 22 0 C21 9 21 9 18 12 C13.75205312 14.35997049 10.66964298 14.16741074 6 13 C3.29432374 11.17660948 1.46271282 9.92542564 0 7 C0 4.69 0 2.38 0 0 Z " fill="#1661B1" transform="translate(117,216)"/>
<path d="M0 0 C0.33 0 0.66 0 1 0 C1.81696909 14.98795674 2.13791354 29.92127937 2.09765625 44.9296875 C2.09578406 47.02816738 2.09436396 49.1266477 2.09336853 51.22512817 C2.08960629 56.66643548 2.07983227 62.10771476 2.06866455 67.54901123 C2.05831263 73.1342328 2.05384183 78.71945904 2.04882812 84.3046875 C2.03820227 95.2031371 2.02120468 106.10156619 2 117 C1.67 117 1.34 117 1 117 C0.67 113.37 0.34 109.74 0 106 C-0.33 106 -0.66 106 -1 106 C-0.98525131 105.22200043 -0.97050262 104.44400085 -0.95530701 103.64242554 C-0.81554084 96.20301841 -0.68268776 88.76353135 -0.5570364 81.32387352 C-0.49225524 77.50180891 -0.42507345 73.67982227 -0.35180664 69.85791016 C0.11338543 47.41359117 0.11338543 47.41359117 -0.66038513 24.98422241 C-1.18436908 16.61569227 -0.66985323 8.34740173 0 0 Z " fill="#DDD6EA" transform="translate(124,82)"/>
<path d="M0 0 C-0.33 1.32 -0.66 2.64 -1 4 C-1.49290527 3.83865067 -1.98581055 3.67730133 -2.49365234 3.51106262 C-6.02073653 2.79186435 -9.51704942 2.83560063 -13.1015625 2.82299805 C-13.91502136 2.81642685 -14.72848022 2.80985565 -15.56658936 2.80308533 C-18.25272722 2.78340736 -20.93880946 2.77170519 -23.625 2.76171875 C-24.54307434 2.75764322 -25.46114868 2.7535677 -26.40704346 2.74936867 C-31.26159438 2.72853654 -36.11611722 2.71421959 -40.97070312 2.70483398 C-45.98800201 2.69374457 -51.00486044 2.65930757 -56.02200317 2.61966228 C-59.87899616 2.5935535 -63.73588295 2.58514753 -67.59295654 2.58155251 C-69.44296257 2.5766757 -71.29296351 2.56503069 -73.1428833 2.54651451 C-75.72842765 2.5222332 -78.31281467 2.523067 -80.8984375 2.5300293 C-81.66323425 2.51721924 -82.42803101 2.50440918 -83.21600342 2.49121094 C-86.74493113 2.52589457 -88.58042316 2.64411011 -91.31884766 4.96687317 C-91.87362793 5.63780502 -92.4284082 6.30873688 -93 7 C-96 8 -96 8 -98 8 C-97.67 8.99 -97.34 9.98 -97 11 C-100.95208882 12.5177598 -103.95872566 11.48752815 -107.9375 10.375 C-109.14277344 10.05273438 -110.34804687 9.73046875 -111.58984375 9.3984375 C-115.35555894 7.85419232 -117.34036506 6.03814086 -120 3 C-119.236875 3.309375 -118.47375 3.61875 -117.6875 3.9375 C-115.81210323 4.67893593 -113.91315348 5.36228217 -112 6 C-112 6.66 -112 7.32 -112 8 C-104.78842136 7.67948539 -100.25844714 6.25844714 -95 1 C-92.05958154 0.78209305 -89.21062317 0.68855096 -86.26757812 0.68115234 C-84.91133583 0.66608391 -84.91133583 0.66608391 -83.5276947 0.65071106 C-80.52888644 0.6197379 -77.53016812 0.60280251 -74.53125 0.5859375 C-72.45380883 0.56723415 -70.37637531 0.54766137 -68.2989502 0.5272522 C-62.82200644 0.47580314 -57.34503793 0.43625127 -51.86798096 0.39910889 C-46.29083041 0.35918619 -40.71378454 0.30801549 -35.13671875 0.2578125 C-5.96408574 0 -5.96408574 0 0 0 Z " fill="#2E84DC" transform="translate(236,230)"/>
<path d="M0 0 C2.70858986 1.65157918 4.97329735 3.55528992 7 6 C7 6.66 7 7.32 7 8 C4 9 4 9 1.8125 8.0625 C1.214375 7.711875 0.61625 7.36125 0 7 C0 6.34 0 5.68 0 5 C-7.21783568 4.01529757 -14.19732419 3.94435158 -21.47265625 4.12109375 C-22.6363121 4.14470474 -23.79996796 4.16831573 -24.99888611 4.19264221 C-28.68689865 4.26873434 -32.3746717 4.35299078 -36.0625 4.4375 C-38.57485838 4.49077528 -41.08722817 4.54351522 -43.59960938 4.59570312 C-49.73321855 4.7242751 -55.86665224 4.85953653 -62 5 C-62 4.01 -62 3.02 -62 2 C-61.35298126 1.98969254 -60.70596252 1.97938507 -60.03933716 1.96876526 C-53.32380778 1.8608425 -46.60841646 1.7462332 -39.89306641 1.62768555 C-37.38463216 1.58429097 -34.87616751 1.5426193 -32.36767578 1.50268555 C-28.76846132 1.44509243 -25.16940058 1.38136657 -21.5703125 1.31640625 C-20.44319855 1.29969376 -19.31608459 1.28298126 -18.15481567 1.26576233 C-17.11388763 1.24581711 -16.07295959 1.22587189 -15.00048828 1.20532227 C-14.08115509 1.18977798 -13.1618219 1.1742337 -12.21463013 1.15821838 C-7.92732105 0.85192294 -4.52932773 -0.88634959 0 0 Z " fill="#366ACE" transform="translate(115,232)"/>
<path d="M0 0 C0.33 0 0.66 0 1 0 C4.72545901 16.13044487 5.27933539 32.08501288 5.125 48.5625 C5.11493564 50.46028166 5.10581598 52.35806857 5.09765625 54.25585938 C5.07594981 58.83737299 5.04161684 63.41862578 5 68 C4.67 68 4.34 68 4 68 C3.96261719 66.92105469 3.92523438 65.84210938 3.88671875 64.73046875 C3.55540233 56.78336407 2.92693771 49.12813754 1.4375 41.3125 C-1.06342574 27.75919099 -0.25677486 13.72231172 0 0 Z " fill="#58DBFE" transform="translate(232,85)"/>
<path d="M0 0 C0.33 0 0.66 0 1 0 C1.04898438 1.02738281 1.09796875 2.05476562 1.1484375 3.11328125 C1.52170146 10.24936243 2.07867984 17.13195814 3.49780273 24.14892578 C5.42222048 35.07422985 5.12655358 46.26023585 5.0625 57.3125 C5.05746888 58.84309747 5.05290886 60.37369657 5.04882812 61.90429688 C5.03796424 65.60289911 5.02079101 69.30143864 5 73 C4.67 73 4.34 73 4 73 C3.97494385 72.410979 3.9498877 71.82195801 3.92407227 71.21508789 C3.80667639 68.49741329 3.68461285 65.77996658 3.5625 63.0625 C3.52318359 62.13630859 3.48386719 61.21011719 3.44335938 60.25585938 C3.17920879 54.46486581 2.70235691 48.75460497 2 43 C1.34 43 0.68 43 0 43 C0 28.81 0 14.62 0 0 Z " fill="#4AC2FD" transform="translate(232,145)"/>
<path d="M0 0 C0.33 0 0.66 0 1 0 C1.02576632 6.48802828 1.0430374 12.97604296 1.05493164 19.46411133 C1.05990034 21.66235853 1.06667759 23.86060254 1.07543945 26.05883789 C1.11784348 36.98660603 1.11997305 47.90565112 0.62109375 58.82421875 C0.59048355 59.59981644 0.55987335 60.37541412 0.52833557 61.17451477 C0.31398142 65.1573794 -0.17262127 67.34524254 -2 71 C-2 52.52 -2 34.04 -2 15 C-1.67 15 -1.34 15 -1 15 C-0.67 10.05 -0.34 5.1 0 0 Z " fill="#63CDFA" transform="translate(239,153)"/>
<path d="M0 0 C0.33 0 0.66 0 1 0 C1 13.53 1 27.06 1 41 C-0.485 41.495 -0.485 41.495 -2 42 C-2.66 42.66 -3.32 43.32 -4 44 C-4.32666841 32.97796597 -3.97522227 22.64928597 -1.75390625 11.83203125 C-0.9775623 7.88595136 -0.4575457 3.99352993 0 0 Z " fill="#49BAF0" transform="translate(23,135)"/>
<path d="M0 0 C0.33 0 0.66 0 1 0 C1 46.86 1 93.72 1 142 C0.67 142 0.34 142 0 142 C0 95.14 0 48.28 0 0 Z " fill="#74C7ED" transform="translate(14,89)"/>
<path d="M0 0 C0.33 0 0.66 0 1 0 C1 46.86 1 93.72 1 142 C0.67 142 0.34 142 0 142 C0 95.14 0 48.28 0 0 Z " fill="#74C8ED" transform="translate(241,89)"/>
<path d="M0 0 C0.33 0 0.66 0 1 0 C1.33 20.13 1.66 40.26 2 61 C3.65 61.33 5.3 61.66 7 62 C8.1875 64 8.1875 64 9 66 C9.66 66.33 10.32 66.66 11 67 C11 67.66 11 68.32 11 69 C8.525 69.495 8.525 69.495 6 70 C5.67 69.34 5.34 68.68 5 68 C4.01 67.62875 4.01 67.62875 3 67.25 C2.34 66.8375 1.68 66.425 1 66 C0.06248089 61.91658858 -0.12233866 57.98852267 -0.11352539 53.81103516 C-0.11344986 52.61024323 -0.11337433 51.40945129 -0.11329651 50.17227173 C-0.10813522 48.89081268 -0.10297394 47.60935364 -0.09765625 46.2890625 C-0.09578895 44.95242364 -0.09436652 43.61578408 -0.09336853 42.27914429 C-0.08956795 38.77750731 -0.07975891 35.27591244 -0.06866455 31.77429199 C-0.05839732 28.19458587 -0.05385957 24.61487288 -0.04882812 21.03515625 C-0.03813422 14.02342031 -0.02108764 7.01171218 0 0 Z " fill="#55ACDE" transform="translate(16,171)"/>
<path d="M0 0 C28.38 0 56.76 0 86 0 C81.84855616 2.07572192 79.1331757 2.26253647 74.66455078 2.1953125 C73.93233307 2.19239197 73.20011536 2.18947144 72.44570923 2.1864624 C70.85897237 2.1788638 69.27225238 2.16664469 67.68558121 2.15032959 C65.17160909 2.1247589 62.65784856 2.11175988 60.14376831 2.10205078 C53.89891663 2.07533195 47.65426596 2.02697124 41.4095459 1.97924805 C36.13282266 1.93973273 30.85617489 1.90847078 25.57934189 1.88812256 C23.10761703 1.87519511 20.63620403 1.85017737 18.1645813 1.82470703 C16.64113635 1.81743797 15.11768857 1.81073501 13.59423828 1.8046875 C12.91143799 1.79435486 12.2286377 1.78402222 11.52514648 1.77337646 C7.31032502 1.77245076 3.92028151 2.46658443 0 4 C0 2.68 0 1.36 0 0 Z " fill="#409CE9" transform="translate(139,216)"/>
<path d="M0 0 C3.19588316 0.03448795 6.13691725 0.34672931 9.25 1.125 C9.58 2.115 9.91 3.105 10.25 4.125 C9.59 4.125 8.93 4.125 8.25 4.125 C8.5284375 5.053125 8.5284375 5.053125 8.8125 6 C9.25 8.125 9.25 8.125 8.25 10.125 C3.01275536 9.71423571 -0.04192047 8.94214069 -3.75 5.125 C-4.625 2.9375 -4.625 2.9375 -4.75 1.125 C-3.75 0.125 -3.75 0.125 0 0 Z " fill="#2867B2" transform="translate(121.75,219.875)"/>
<path d="M0 0 C0.33 0 0.66 0 1 0 C2.00708069 11.0239368 2.10611887 21.94005573 2 33 C3.32 33.66 4.64 34.32 6 35 C5.34 35.99 4.68 36.98 4 38 C3.34 38 2.68 38 2 38 C2.33 40.31 2.66 42.62 3 45 C1.515 45.495 1.515 45.495 0 46 C0 30.82 0 15.64 0 0 Z " fill="#4BB3ED" transform="translate(17,179)"/>
<path d="M0 0 C1.134375 0.020625 2.26875 0.04125 3.4375 0.0625 C1.4575 3.0325 1.4575 3.0325 -0.5625 6.0625 C-1.8825 5.7325 -3.2025 5.4025 -4.5625 5.0625 C-4.5625 6.0525 -4.5625 7.0425 -4.5625 8.0625 C-4.8925 8.7225 -5.2225 9.3825 -5.5625 10.0625 C-22.39583333 7.43229167 -22.39583333 7.43229167 -26.5625 2.875 C-26.8925 2.276875 -27.2225 1.67875 -27.5625 1.0625 C-26.799375 1.371875 -26.03625 1.68125 -25.25 2 C-23.37460323 2.74143593 -21.47565348 3.42478217 -19.5625 4.0625 C-19.5625 4.7225 -19.5625 5.3825 -19.5625 6.0625 C-11.84916846 5.71968526 -6.5802238 0.11544252 0 0 Z " fill="#3683D9" transform="translate(143.5625,231.9375)"/>
<path d="M0 0 C29.7 0 59.4 0 90 0 C90 0.33 90 0.66 90 1 C45.45 1.495 45.45 1.495 0 2 C0 1.34 0 0.68 0 0 Z " fill="#4D6DC8" transform="translate(141,241)"/>
<path d="M0 0 C29.7 0 59.4 0 90 0 C89.67 0.66 89.34 1.32 89 2 C59.63 1.67 30.26 1.34 0 1 C0 0.67 0 0.34 0 0 Z " fill="#4D6DC8" transform="translate(25,241)"/>
<path d="M0 0 C7.26 0 14.52 0 22 0 C22 1.98 22 3.96 22 6 C21.01 6.495 21.01 6.495 20 7 C20 6.01 20 5.02 20 4 C19.01 4.33 18.02 4.66 17 5 C16.34 4.67 15.68 4.34 15 4 C12.45384991 3.76827173 9.92603775 3.58105471 7.375 3.4375 C6.66859375 3.39431641 5.9621875 3.35113281 5.234375 3.30664062 C3.48981463 3.20055249 1.74493303 3.09977111 0 3 C0 2.01 0 1.02 0 0 Z " fill="#154EAA" transform="translate(117,216)"/>
<path d="M0 0 C0.33 0 0.66 0 1 0 C1.04953687 4.19920237 1.08578411 8.39824869 1.10986328 12.59765625 C1.11990427 14.02542078 1.13353981 15.45316483 1.15087891 16.88085938 C1.17521152 18.93624941 1.18650202 20.99136692 1.1953125 23.046875 C1.20578613 24.28276367 1.21625977 25.51865234 1.22705078 26.79199219 C1.01298081 29.81659371 0.59653159 31.46985651 -1 34 C-1.66 33.67 -2.32 33.34 -3 33 C-2.67 30.69 -2.34 28.38 -2 26 C-2.66 26 -3.32 26 -4 26 C-3.25 21.25 -3.25 21.25 -1 19 C-0.63105418 16.96939341 -0.63105418 16.96939341 -0.5859375 14.6484375 C-0.54726562 13.79765625 -0.50859375 12.946875 -0.46875 12.0703125 C-0.4378125 11.18085938 -0.406875 10.29140625 -0.375 9.375 C-0.33632812 8.4778125 -0.29765625 7.580625 -0.2578125 6.65625 C-0.16340643 4.4377073 -0.07783252 2.21917597 0 0 Z " fill="#59BCEE" transform="translate(239,201)"/>
<path d="M0 0 C1.98 0.99 1.98 0.99 4 2 C4 10.58 4 19.16 4 28 C3.34 28.33 2.68 28.66 2 29 C1.97494385 28.33468262 1.9498877 27.66936523 1.92407227 26.98388672 C1.80748864 23.94742513 1.68504649 20.91122654 1.5625 17.875 C1.52318359 16.82828125 1.48386719 15.7815625 1.44335938 14.703125 C1.23868904 9.72806158 1.00723793 4.89229851 0 0 Z " fill="#70E9FE" transform="translate(235,84)"/>
<path d="M0 0 C0.33 0 0.66 0 1 0 C3.31982239 6.3259772 3.11246732 12.01557246 2.75 18.6875 C2.71003906 19.71939453 2.67007813 20.75128906 2.62890625 21.81445312 C2.39597131 26.66516589 2.21806413 29.56387173 0 34 C0 22.78 0 11.56 0 0 Z " fill="#5DC5FD" transform="translate(237,190)"/>
<path d="M0 0 C0.33 0 0.66 0 1 0 C1 2.31 1 4.62 1 7 C1.78375 7.0825 2.5675 7.165 3.375 7.25 C6 8 6 8 7.1875 10 C7.455625 10.66 7.72375 11.32 8 12 C8.66 12.33 9.32 12.66 10 13 C10 13.66 10 14.32 10 15 C8.35 15.33 6.7 15.66 5 16 C4.67 15.34 4.34 14.68 4 14 C3.34 13.79375 2.68 13.5875 2 13.375 C0 12 0 12 -0.8125 8.125 C-1.04506604 5.21792445 -1.03927905 2.77141079 0 0 Z " fill="#648DD0" transform="translate(17,225)"/>
<path d="M0 0 C0.66 0 1.32 0 2 0 C2.66 0.99 3.32 1.98 4 3 C5.90203174 3.46722598 5.90203174 3.46722598 8 3.5 C10.125 3.59375 10.125 3.59375 12 4 C12.99 5.485 12.99 5.485 14 7 C13.67 7.66 13.34 8.32 13 9 C7.76275536 8.58923571 4.70807953 7.81714069 1 4 C0.1875 1.75 0.1875 1.75 0 0 Z " fill="#1D70BB" transform="translate(117,221)"/>
<path d="M0 0 C4.62 0 9.24 0 14 0 C13.34 1.32 12.68 2.64 12 4 C8.7 4 5.4 4 2 4 C2 3.34 2 2.68 2 2 C1.34 1.34 0.68 0.68 0 0 Z " fill="#5879CA" transform="translate(121,245)"/>
<path d="M0 0 C5.28 0.33 10.56 0.66 16 1 C16.33 1.99 16.66 2.98 17 4 C16.34 4 15.68 4 15 4 C14.67 4.66 14.34 5.32 14 6 C13.34 5.34 12.68 4.68 12 4 C7.62328112 3.2825051 3.4400235 2.86124927 -1 3 C-0.67 2.01 -0.34 1.02 0 0 Z " fill="#215DAF" transform="translate(118,218)"/>
<path d="M0 0 C0.33 0 0.66 0 1 0 C1.28571429 8.57142857 1.28571429 8.57142857 -1 12 C-1.66 11.67 -2.32 11.34 -3 11 C-2.44894091 7.0507432 -1.61064629 3.65079826 0 0 Z " fill="#60A0DA" transform="translate(239,223)"/>
<path d="M0 0 C0.66 0 1.32 0 2 0 C2.66 1.32 3.32 2.64 4 4 C-0.52092968 5.45606519 -3.51648796 4.27032841 -8 3 C-8 2.67 -8 2.34 -8 2 C-5.36 2 -2.72 2 0 2 C0 1.34 0 0.68 0 0 Z " fill="#3F73CF" transform="translate(135,237)"/>
<path d="M0 0 C5.28 0 10.56 0 16 0 C16 0.66 16 1.32 16 2 C9.47305215 3.15181433 5.92164036 2.96082018 0 0 Z " fill="#C6BDDB" transform="translate(169,200)"/>
<path d="M0 0 C2.03833424 1.2739589 4.03852126 2.61061923 6 4 C6 4.66 6 5.32 6 6 C3 7 3 7 0.8125 6.0625 C0.214375 5.711875 -0.38375 5.36125 -1 5 C-0.67 3.35 -0.34 1.7 0 0 Z " fill="#3B75D0" transform="translate(116,234)"/>
<path d="M0 0 C0.33 0.66 0.66 1.32 1 2 C1.66 2 2.32 2 3 2 C1.70700306 4.88437779 0.34058637 6.87219421 -2 9 C-2.66 8.67 -3.32 8.34 -4 8 C-3.505 7.401875 -3.01 6.80375 -2.5 6.1875 C-0.71723582 4.02970006 -0.71723582 4.02970006 -1 1 C-0.67 0.67 -0.34 0.34 0 0 Z " fill="#4E7BCB" transform="translate(139,236)"/>
<path d="M0 0 C0.66 0 1.32 0 2 0 C1.45912682 3.78611227 -0.11722332 5.55400767 -3 8 C-3.66 8 -4.32 8 -5 8 C-3.63055898 5.05043472 -2.12169591 2.47531189 0 0 Z " fill="#BDC2CC" transform="translate(35,70)"/>
<path d="M0 0 C4.875 4.625 4.875 4.625 6 8 C5.01 9.485 5.01 9.485 4 11 C3.52014033 9.72942818 3.0411407 8.45853152 2.5625 7.1875 C2.16224609 6.12595703 2.16224609 6.12595703 1.75390625 5.04296875 C1.13774814 3.37327604 0.56280765 1.68842296 0 0 Z " fill="#D8DEE9" transform="translate(120,68)"/>
<path d="M0 0 C3.465 1.98 3.465 1.98 7 4 C6.34 4.66 5.68 5.32 5 6 C2.375 5.625 2.375 5.625 0 5 C0 3.35 0 1.7 0 0 Z " fill="#3C83D3" transform="translate(18,227)"/>
<path d="M0 0 C2.31 0 4.62 0 7 0 C6 2 6 2 2.9375 3.125 C1.968125 3.41375 0.99875 3.7025 0 4 C0 2.68 0 1.36 0 0 Z " fill="#3C93DF" transform="translate(139,216)"/>
<path d="M0 0 C0.66 0.33 1.32 0.66 2 1 C1.25 2.9375 1.25 2.9375 0 5 C-2.125 5.75 -2.125 5.75 -4 6 C-4 4 -4 4 -2 1.875 C-1.34 1.25625 -0.68 0.6375 0 0 Z " fill="#5580CD" transform="translate(235,233)"/>
<path d="M0 0 C0 0.99 0 1.98 0 3 C-0.99 3 -1.98 3 -3 3 C-2.01 2.01 -1.02 1.02 0 0 Z " fill="#A5B7DC" transform="translate(238,235)"/>
<path d="M0 0 C1.98 0.99 1.98 0.99 4 2 C3.67 2.66 3.34 3.32 3 4 C2.01 2.68 1.02 1.36 0 0 Z " fill="#B1D1E6" transform="translate(235,81)"/>
<path d="M0 0 C0.66 0.33 1.32 0.66 2 1 C0.68 1.99 -0.64 2.98 -2 4 C-1.34 2.68 -0.68 1.36 0 0 Z " fill="#B1D1E6" transform="translate(19,81)"/>
<path d="M0 0 C0.66 0 1.32 0 2 0 C2 0.66 2 1.32 2 2 C1.34 2 0.68 2 0 2 C0 1.34 0 0.68 0 0 Z " fill="#9FCFE9" transform="translate(127,74)"/>
<path d="M0 0 C0.99 0.495 0.99 0.495 2 1 C1.67 1.66 1.34 2.32 1 3 C0.67 2.01 0.34 1.02 0 0 Z " fill="#B4D2E6" transform="translate(223,71)"/>
<path d="M0 0 C0 3 0 3 0 3 Z " fill="#B4D2E6" transform="translate(32,71)"/>
<path d="M0 0 C0.99 0.495 0.99 0.495 2 1 C1.67 1.66 1.34 2.32 1 3 C0.67 2.01 0.34 1.02 0 0 Z " fill="#B4D2E6" transform="translate(219,66)"/>
<path d="M0 0 C0 3 0 3 0 3 Z " fill="#B4D2E6" transform="translate(36,66)"/>
<path d="M0 0 C3 1 3 1 3 1 Z " fill="#9FB2DA" transform="translate(231,240)"/>
<path d="" fill="#ADD1E7" transform="translate(0,0)"/>
<path d="" fill="#9FB2DA" transform="translate(0,0)"/>
<path d="" fill="#ADD1E7" transform="translate(0,0)"/>
<path d="" fill="#ADD1E7" transform="translate(0,0)"/>
<path d="M0 0 C3 1 3 1 3 1 Z " fill="#ADD1E7" transform="translate(231,79)"/>
<path d="M0 0 C3 1 3 1 3 1 Z " fill="#ADD1E7" transform="translate(22,79)"/>
<path d="M0 0 C3 1 3 1 3 1 Z " fill="#83ABDB" transform="translate(228,78)"/>
<path d="M0 0 C3 1 3 1 3 1 Z " fill="#67AAE1" transform="translate(25,78)"/>
<path d="M0 0 C0.99 0.495 0.99 0.495 2 1 C1.01 1.495 1.01 1.495 0 2 C0 1.34 0 0.68 0 0 Z " fill="#91CDEA" transform="translate(33,69)"/>
<path d="M0 0 C3 1 3 1 3 1 Z " fill="#ADD1E7" transform="translate(140,63)"/>
<path d="M0 0 C3 1 3 1 3 1 Z " fill="#ADD1E7" transform="translate(113,63)"/>
<path d="M0 0 C2 1 2 1 2 1 Z " fill="#4C6CC8" transform="translate(133,247)"/>
<path d="M0 0 C2 1 2 1 2 1 Z " fill="#4C6CC8" transform="translate(121,247)"/>
<path d="M0 0 C2 1 2 1 2 1 Z " fill="#8AA0D6" transform="translate(135,246)"/>
<path d="M0 0 C2 1 2 1 2 1 Z " fill="#8AA0D6" transform="translate(119,246)"/>
<path d="M0 0 C2 1 2 1 2 1 Z " fill="#8AA0D6" transform="translate(138,244)"/>
<path d="M0 0 C2 1 2 1 2 1 Z " fill="#8AA0D6" transform="translate(116,244)"/>
<path d="" fill="#C9D5E4" transform="translate(0,0)"/>
<path d="" fill="#C9D5E4" transform="translate(0,0)"/>
<path d="" fill="#9FCFE9" transform="translate(0,0)"/>
<path d="" fill="#9FCFE9" transform="translate(0,0)"/>
<path d="M0 0 C2 1 2 1 2 1 Z " fill="#9FCFE9" transform="translate(135,66)"/>
<path d="M0 0 C2 1 2 1 2 1 Z " fill="#9FCFE9" transform="translate(119,66)"/>
<path d="M0 0 C2 1 2 1 2 1 Z " fill="#9FCFE9" transform="translate(138,64)"/>
<path d="M0 0 C2 1 2 1 2 1 Z " fill="#9FCFE9" transform="translate(116,64)"/>
<path d="M0 0 C2 1 2 1 2 1 Z " fill="#9FCFE9" transform="translate(215,63)"/>
<path d="M0 0 C2 1 2 1 2 1 Z " fill="#C9D5E4" transform="translate(39,63)"/>
<path d="M0 0 C2 1 2 1 2 1 Z " fill="#75C9EE" transform="translate(213,62)"/>
<path d="M0 0 C2 1 2 1 2 1 Z " fill="#75C9EE" transform="translate(41,62)"/>
<path d="" fill="#4C6CC8" transform="translate(0,0)"/>
<path d="" fill="#4C6CC8" transform="translate(0,0)"/>
<path d="" fill="#C9D5E4" transform="translate(0,0)"/>
<path d="" fill="#C9D5E4" transform="translate(0,0)"/>
<path d="" fill="#4C6CC8" transform="translate(0,0)"/>
<path d="" fill="#4C6CC8" transform="translate(0,0)"/>
<path d="" fill="#75C9EE" transform="translate(0,0)"/>
<path d="" fill="#4C6CC8" transform="translate(0,0)"/>
<path d="" fill="#75C9EE" transform="translate(0,0)"/>
<path d="" fill="#75C9EE" transform="translate(0,0)"/>
<path d="" fill="#75C9EE" transform="translate(0,0)"/>
<path d="" fill="#75C9EE" transform="translate(0,0)"/>
<path d="" fill="#75C9EE" transform="translate(0,0)"/>
<path d="" fill="#75C9EE" transform="translate(0,0)"/>
<path d="" fill="#75C9EE" transform="translate(0,0)"/>
<path d="" fill="#75C9EE" transform="translate(0,0)"/>
<path d="" fill="#75C9EE" transform="translate(0,0)"/>
<path d="" fill="#75C9EE" transform="translate(0,0)"/>
<path d="" fill="#75C9EE" transform="translate(0,0)"/>
<path d="" fill="#C9D5E4" transform="translate(0,0)"/>
<path d="" fill="#C9D5E4" transform="translate(0,0)"/>
<path d="" fill="#75C9EE" transform="translate(0,0)"/>
<path d="" fill="#75C9EE" transform="translate(0,0)"/>
<path d="" fill="#75C9EE" transform="translate(0,0)"/>
<path d="" fill="#75C9EE" transform="translate(0,0)"/>
<path d="" fill="#75C9EE" transform="translate(0,0)"/>
<path d="" fill="#C9D5E4" transform="translate(0,0)"/>
<path d="" fill="#C9D5E4" transform="translate(0,0)"/>
<path d="" fill="#75C9EE" transform="translate(0,0)"/>
<path d="" fill="#75C9EE" transform="translate(0,0)"/>
<path d="" fill="#75C9EE" transform="translate(0,0)"/>
<path d="" fill="#75C9EE" transform="translate(0,0)"/>
<path d="" fill="#C9D5E4" transform="translate(0,0)"/>
<path d="" fill="#C9D5E4" transform="translate(0,0)"/>
</svg>