<svg xmlns="http://www.w3.org/2000/svg" viewBox="0 0 512 512" width="682.667" height="682.667" xmlns:v="https://vecta.io/nano"><path d="M0 0h512v512H0V0z" fill="#6363a3"/><path d="M235.79 97.82l2.35 6.46c-.99 9.66-2.88 19.18-3.91 28.84-4.11 35.81-4.72 73.67 2.49 109.12.67 3.74 1.54 7.4 3.13 10.87l.64 1.28c6.21.95 11.37-1.22 17.18-2.89 5.48-1.63 11.01-2.44 16.6-3.53-3.02-.95-6.04-1.81-9.21-2.15 2.29-.39 5.04-.9 7.28-.17 2.65 1.2 4.25 4.72 5.39 7.24 1.83 4.82 3.14 9.89 4.55 14.84 2.73 9.8 5.91 19.32 8.95 29.07 1.3 4.16 3.02 8.17 5.15 11.97 1.38.2 2.85.48 4.14-.23 3.79-1.96 7.17-4.87 10.53-7.49 9.16-7.14 16.85-16.23 22.7-26.24 2.41-4.5 5.02-7.56 9.01-10.73l-3.83-1.57c1.39.02 3.71-.45 4.67.82 1.17 1.93 1.41 4.53 1.71 6.73-2.49 6.6-6.3 12.14-10.47 17.77-6.25 8.3-13.65 15.81-21.95 22.05l-13.22 9.08c1.57 4.51 3.13 9.01 5.04 13.4 7.23 17.28 14.63 34.9 23.81 51.25 1.48 2.82 3.35 6.12 3.56 9.34-.09 2.06-1.3 3.41-3.17 4.13-2-.17-5.1.1-6.46-1.65-3.16-3.6-5.1-8.42-7.43-12.58-2.74-4.89-4.74-10.07-7.01-15.17l-.83-1.51c-5.1-8.62-8.42-17.86-12.39-27.01-1.67-3.99-3.52-7.93-4.47-12.17l-.29-3.19c-8.63 2.25-16.67 5.49-25.54 6.79-20.56 3.59-41.86.96-61.16-6.84-5.12-2.03-9.71-4.89-14.58-7.41-2.46-1.44-5.17-3.05-7.03-5.23-1.59-4.04 3.59-9.64 7.67-7.45 4.21 2.02 7.79 5.04 12.21 6.73 8.89 3.56 17.98 6.72 27.41 8.47 18.21 3.76 37.99.74 55.12-6.14-1.17-4.07-2.23-8.13-3.69-12.11-3.29-8.93-5.85-18.17-8.78-27.25-1.43-4.42-2.36-8.95-3.1-13.54l-.35-1.76c-10.42.37-19.5 5.74-30.02 6.14-4.07-1.69-8.89-3.34-10.27-8.02-2.66-8.56-4.32-17.46-4.78-26.42 2.92 9.83 3.71 19.86 7.56 29.39-.46-5.78-1.72-11.38-2.95-17.02-3.58-19.43-4.86-39.39-5.02-59.13.41-21.39 2.02-42.8 5.19-63.96.66-4.27 1-8.73 2.24-12.87.73-2.72 3.71-4.53 5.76-6.25l-5.87-1.24c1.9-.38 3.81-.62 5.74-.86z" fill="#6f6fb0"/><path d="M230.05 98.68l5.87 1.24c-2.05 1.72-5.03 3.53-5.76 6.25-1.24 4.14-1.58 8.6-2.24 12.87-3.17 21.16-4.78 42.57-5.19 63.96.16 19.74 1.44 39.7 5.02 59.13 1.23 5.64 2.49 11.24 2.95 17.02-3.85-9.53-4.64-19.56-7.56-29.39-3.31-22.62-3.88-45.89-2.72-68.7l1.16-18.94c-6.4 1.11-12.6 2.82-18.82 4.66l-80.46 21.48c-4.55 1.24-9.52 2.18-13.75 4.31-3 1.52-4.47 4.43-6 7.26-.8 1.52-1.64 3.03-2.48 4.53-.19-2.76-.41-6.04.68-8.65 1.39-3.2 4.11-5.31 7.26-6.64 4.72-1.94 9.91-2.91 14.83-4.26l81.2-21.78c6.11-1.44 12.03-3.13 18-5.1 1.48-9.63 2.41-19.33 3.95-28.94.64-3.43 1.41-7.81 4.06-10.31z" fill="#8181b9"/><path d="M239.72 101.67c.83 3.26 1.37 6.4.68 9.75-1.4 7.9-2.6 15.8-3.65 23.75l-.14.95c-3.35 33.85-4.36 66.97 1.49 100.64.98 5.64 3 10.54 1.75 16.35-1.59-3.47-2.46-7.13-3.13-10.87-7.21-35.45-6.6-73.31-2.49-109.12 1.03-9.66 2.92-19.18 3.91-28.84l1.58-2.61z" fill="#424286"/><path d="M341.09 106.92c2.16-.24 4.39 1.23 6.44 1.91-5.41 1.11-10.9 1.93-16.19 3.39l-74.96 20.16c-6.78 1.7-12.57 4.54-19.77 3.74l.14-.95c5.35-2.87 11.85-4 17.73-5.63l70.96-19.05c5.07-1.34 10.41-3.23 15.65-3.57z" fill="#8181b9"/><path d="M352.51 112.79c4.79 6.78 5.57 14.12 7.76 21.87l51.6 192.39c1.07 4.78.16 9.85-3.61 13.21-3.72 3.25-9.64 4.39-14.3 5.67l-56.02 14.96c-5.67 1.31-11.12 2.91-16.59 4.9 2.48 5.67 5.11 11.25 8.12 16.66 1.79 3.45 4.09 7.05 5.01 10.86.7 2.79-1.19 5.62-3.81 6.55-2.18.21-4.48-.54-6.64-.86l4.88-1.92c1.87-.72 3.08-2.07 3.17-4.13-.21-3.22-2.08-6.52-3.56-9.34-9.18-16.35-16.58-33.97-23.81-51.25-1.91-4.39-3.47-8.89-5.04-13.4l13.22-9.08c8.3-6.24 15.7-13.75 21.95-22.05 4.17-5.63 7.98-11.17 10.47-17.77l1.71-4.21c.32 1.94.85 3.94.83 5.91-.81 3.82-3.31 7.45-5.37 10.72-7.28 11.41-16.47 21.55-27.31 29.68l-12.72 8.85c3.51 10.63 8.08 20.76 12.37 31.09 1.51 3.57 3.31 6.86 5.06 10.33l76.21-20.23c3.12-.86 6.7-1.84 9.32-3.81 3.06-2.36 4.49-6.23 4.1-10.04-.57-5.4-2.51-10.72-3.84-15.98l-47.56-177.43c-1.9-7.35-4.23-14.69-5.6-22.15z" fill="#414185"/><path d="M102.55 179.83c.64 7.59 2.9 14.48 4.83 21.78l47.71 178.28c1.7 5.85 3.45 11.55 3.67 17.69-4.34-4.05-4.46-9-5.98-14.37L104.67 203.4c-1.65-6.24-3.76-12.67-4.6-19.04l2.48-4.53z" fill="#7273af"/><path d="M301.56 180.25c1.88 2.65 2.74 5.56 3.61 8.65 1.21 5.23 3.83 10.7 3.96 16.05.03 2.1-.66 2.86-2.34 3.96-2.25.07-5.1.5-7.15-.54-2.04-2.15-2.82-5.68-3.68-8.44-1.15-4.51-2.83-9.23-2.95-13.89-.06-4.41 4.6-6.9 8.55-5.79z" fill="#7070b0"/><path d="M305.33 183.77c2.98 6.27 4.83 12.92 6.15 19.72.4 2.74.82 5.51-1.41 7.59-2.25 2.34-5.57.93-8.35.8 1.85-.8 3.46-1.76 5.07-2.97 1.68-1.1 2.37-1.86 2.34-3.96-.13-5.35-2.75-10.82-3.96-16.05 0-1.72.08-3.42.16-5.13z" fill="#424286"/><path d="M184.95 211.89c1.55 2.04 2.45 4.7 3.24 7.12 1.26 5.84 4.07 11.94 4.07 17.91-.01 1.7-.93 2.42-2.29 3.2-2.66.04-5.32-.03-7.98-.03-2.24-6.79-4.45-13.28-5.63-20.4-.24-1.93-.41-3.81.76-5.5 1.59-2.37 5.22-3.91 7.83-2.3z" fill="#7070b0"/><path d="M188.4 214.8c3.09 6.42 5.05 13.45 6.36 20.43.44 2.86.53 5.62-2.02 7.54-2.14 1.89-5.36.41-7.94.21l5.17-2.86c1.36-.78 2.28-1.5 2.29-3.2 0-5.97-2.81-12.07-4.07-17.91l.21-4.21z" fill="#434386"/><path d="M265.06 245.82c3.17.34 6.19 1.2 9.21 2.15-5.59 1.09-11.12 1.9-16.6 3.53-5.81 1.67-10.97 3.84-17.18 2.89 3.55-2.35 7.05-3.78 11.18-4.75 4.54-1.03 8.9-2.66 13.39-3.82z" fill="#8383bb"/><path d="M279.8 251.24c3.89 9.95 5.96 20.45 9.34 30.6 2.32 8.64 6.36 17.02 7.7 25.84l-.46 1.09c-2.13-3.8-3.85-7.81-5.15-11.97l-8.95-29.07c-1.41-4.95-2.72-10.02-4.55-14.84l2.07-1.65z" fill="#4b4b8d"/><path d="M268.21 258.06l.35 1.76c-5.56 1.84-11.18 3.27-16.82 4.88-3.19.87-6.56 1.87-9.87 2.1-2.71.24-5.62-1.17-8.12-2.12l4.44-.48c10.52-.4 19.6-5.77 30.02-6.14z" fill="#404084"/><path d="M338.93 262.51l3.83 1.57c-3.99 3.17-6.6 6.23-9.01 10.73-5.85 10.01-13.54 19.1-22.7 26.24-3.36 2.62-6.74 5.53-10.53 7.49-1.29.71-2.76.43-4.14.23l.46-1.09c3.92-3.45 8.45-6.04 12.45-9.4 8.74-7.24 16.48-15.96 22.12-25.84 2.05-3.41 4.2-7.61 7.52-9.93z" fill="#8888be"/><path d="M186.17 315.96l2.58.38c4.87 2.52 9.46 5.38 14.58 7.41 19.3 7.8 40.6 10.43 61.16 6.84 8.87-1.3 16.91-4.54 25.54-6.79a111.11 111.11 0 0 0 .29 3.19c-6.69 1.76-13.04 4.1-19.78 5.5-21.2 4.39-43.6 2.61-63.73-5.43-7.14-2.9-14.53-6.36-20.64-11.1z" fill="#414185"/><path d="M307.18 366.17l.83 1.51c-5.22 3.07-10.86 4.23-16.66 5.62l-101.76 27.29c-5.84 1.49-11.71 3.64-17.7 4.38-3.24.45-6.15-1.04-9.09-2.16 7.15-.32 13.62-1.36 20.46-3.55l113.57-30.48c3.46-.96 6.81-1.97 10.35-2.61z" fill="#404084"/></svg>