<?xml version="1.0" encoding="UTF-8" standalone="no"?>
<svg xmlns="http://www.w3.org/2000/svg" xmlns:xlink="http://www.w3.org/1999/xlink" width="48" height="48" version="1.0">
  <defs>
    <linearGradient id="g">
      <stop offset="0" stop-color="#3465a4" stop-opacity="0"/>
      <stop offset=".46043167" stop-color="#3465a4"/>
      <stop offset="1" stop-color="#3465a4" stop-opacity="0"/>
    </linearGradient>
    <linearGradient id="c">
      <stop offset="0" stop-color="#babdb6"/>
      <stop offset="1" stop-color="#babdb6" stop-opacity="0"/>
    </linearGradient>
    <linearGradient id="e">
      <stop offset="0" stop-color="#babdb6"/>
      <stop offset="1" stop-color="#eeeeec"/>
    </linearGradient>
    <linearGradient id="f">
      <stop offset="0" stop-color="#babdb6"/>
      <stop offset="1" stop-color="#888a85"/>
    </linearGradient>
    <linearGradient id="h">
      <stop offset="0"/>
      <stop offset="1" stop-opacity="0"/>
    </linearGradient>
    <linearGradient id="d">
      <stop offset="0"/>
      <stop offset="1" stop-color="#2e3436"/>
    </linearGradient>
    <linearGradient id="k">
      <stop offset="0" stop-color="#707370"/>
      <stop offset="1" stop-color="#242524"/>
    </linearGradient>
    <linearGradient id="a">
      <stop offset="0" stop-color="#fff"/>
      <stop offset="1" stop-color="#fff" stop-opacity="0"/>
    </linearGradient>
    <linearGradient id="j">
      <stop offset="0"/>
      <stop offset="1" stop-opacity="0"/>
    </linearGradient>
    <linearGradient id="i">
      <stop offset="0" stop-color="#729fcf"/>
      <stop offset="1" stop-color="#326194"/>
    </linearGradient>
    <linearGradient id="b">
      <stop offset="0" stop-color="#eeeeec"/>
      <stop offset="1" stop-color="#d3d3ce"/>
    </linearGradient>
    <linearGradient xlink:href="#a" id="p" x1="20.156862" x2="20.156862" y1="5.0996137" y2="26.039215" gradientTransform="matrix(.84348 0 0 .85879 3.3872535 -.8650825)" gradientUnits="userSpaceOnUse"/>
    <linearGradient xlink:href="#b" id="l" x1="23.133226" x2="23.20853" y1=".91343939" y2="35.906151" gradientTransform="matrix(.89999 0 0 1.02968 2.0836736 1.028038)" gradientUnits="userSpaceOnUse"/>
    <linearGradient xlink:href="#c" id="m" x1="29.122169" x2="29.127831" y1="37.5" y2="24.640625" gradientUnits="userSpaceOnUse"/>
    <linearGradient xlink:href="#d" id="v" x1="196.88957" x2="196.88957" y1="63.996719" y2="67.691895" gradientTransform="matrix(.80937 0 0 1.24323 -152.95625 -42.55038)" gradientUnits="userSpaceOnUse"/>
    <linearGradient xlink:href="#e" id="t" x1="42.75" x2="5" y1="37" y2="43.125" gradientTransform="matrix(1 0 0 1.13292 .0625 -4.852542)" gradientUnits="userSpaceOnUse"/>
    <linearGradient xlink:href="#f" id="u" x1="7.9987206" x2="7.5" y1="35.039005" y2="45" gradientTransform="matrix(1 0 0 1.13292 .0625 -4.852542)" gradientUnits="userSpaceOnUse"/>
    <linearGradient xlink:href="#d" id="w" x1="196.88957" x2="196.88957" y1="63.996719" y2="67.691895" gradientTransform="matrix(1 0 0 1.24323 -190.0625 -42.55038)" gradientUnits="userSpaceOnUse"/>
    <linearGradient xlink:href="#g" id="q" x1="23.5625" x2="23.5625" y1="1.890625" y2="36.640625" gradientUnits="userSpaceOnUse"/>
    <radialGradient xlink:href="#h" id="n" cx="23.96336" cy="40.374615" r="23.5" fx="23.96336" fy="40.374615" gradientTransform="matrix(1 0 0 .29787 .03664127 28.97356)" gradientUnits="userSpaceOnUse"/>
    <radialGradient xlink:href="#i" id="o" cx="24.006104" cy="32.997028" r="19.00016" fx="24.006104" fy="32.997028" gradientTransform="matrix(1.0521 0 0 .67106 -1.745305 -31.037336)" gradientUnits="userSpaceOnUse"/>
    <radialGradient xlink:href="#j" id="r" cx="23.9375" cy="42.6875" r="23.75956" fx="23.9375" fy="42.6875" gradientTransform="matrix(1 0 0 .24763 0 32.1168)" gradientUnits="userSpaceOnUse"/>
    <radialGradient xlink:href="#k" id="x" cx="23.499994" cy="26.000002" r="19.5" fx="23.499994" fy="26.000002" gradientTransform="matrix(1.62098 0 0 .19775 -14.59314 35.92447)" gradientUnits="userSpaceOnUse"/>
    <radialGradient xlink:href="#h" id="s" cx="23.96336" cy="40.374615" r="23.5" fx="23.96336" fy="40.374615" gradientTransform="matrix(1 0 0 .29787 .03664127 28.97356)" gradientUnits="userSpaceOnUse"/>
  </defs>
  <path fill="url(#l)" fill-rule="evenodd" stroke="#888a85" stroke-width=".99999994" d="M23.5625 1.53125C8.8922463 1.536903 5.5901185 1.935687 4.71875 7.125c-.4404081 2.622789-.706224 2.621322-1.0625 12.5625-.356347 9.943165.1502482 17.781247 3.625 17.78125L23.5625 37.5l16.28125-.03125c3.474752-.000003 3.981347-7.838085 3.625-17.78125-.356276-9.941178-.622092-9.939711-1.0625-12.5625-.871368-5.189313-4.173496-5.588097-18.84375-5.59375z"/>
  <path fill="url(#m)" fill-rule="evenodd" d="M23.5625 1.53125C8.892246 1.536903 5.590119 1.935687 4.71875 7.125c-.440408 2.622789-.706224 2.621322-1.0625 12.5625-.356347 9.943165.150248 17.781247 3.625 17.78125L23.5625 37.5l16.28125-.03125c3.474752-.000003 3.981347-7.838085 3.625-17.78125-.356276-9.941178-.622092-9.939711-1.0625-12.5625-.871368-5.189313-4.173496-5.588097-18.84375-5.59375z"/>
  <path fill="url(#n)" d="M47.5 41a23.5 7 0 1 1-47 0 23.5 7 0 1 1 47 0z" color="#000" opacity=".3" overflow="visible" style="marker:none" transform="matrix(1.02128 0 0 .70995 -.4222497 13.99507)"/>
  <rect width="29.896999" height="20.89134" x="8.5744448" y="-26.42725" fill="url(#o)" fill-rule="evenodd" stroke="#204a87" stroke-width=".99999994" ry=".62248665" transform="scale(1 -1)"/>
  <path fill="#eeeeec" fill-rule="evenodd" d="M9.1930199 6.0554562h28.768129v1.0714285H9.1930199z" color="#000" opacity=".83606561" overflow="visible" style="marker:none"/>
  <path fill="url(#p)" fill-rule="evenodd" d="M9.196384 6.0321461V21.497027c13.87052-1.163008 17.489643-8.684402 28.766884-9.47022V6.0052039l-28.766884.0269422z" opacity=".75"/>
  <path fill="#eeeeec" fill-rule="evenodd" d="M15 24.074043h17v1.7688689H15z" color="#000" opacity=".45901639" overflow="visible" style="marker:none"/>
  <rect width="8.0354977" height="4.0488443" x="6.4938359" y="31.568186" fill="#729fcf" fill-rule="evenodd" stroke="#204a87" stroke-linecap="round" stroke-linejoin="round" color="#000" overflow="visible" ry="1.9619222" style="marker:none"/>
  <rect width="7.9104977" height="3.8529069" x="32.541332" y="31.591829" fill="#729fcf" fill-rule="evenodd" stroke="#204a87" stroke-linecap="round" stroke-linejoin="round" stroke-width=".99999988" color="#000" overflow="visible" ry="1.8639535" style="marker:none"/>
  <rect width="12.055185" height="1.9813492" x="17.527342" y="32.480312" fill="none" stroke="#888a85" stroke-linecap="round" stroke-linejoin="round" stroke-width=".99999988" color="#000" overflow="visible" ry=".32061896" style="marker:none"/>
  <path fill="none" stroke="#000" stroke-linecap="round" stroke-linejoin="round" stroke-width=".99999994" d="m5.5 30.493075 36 .060914h-.106511" opacity=".15163933"/>
  <path fill="none" stroke="#eeeeec" stroke-width=".99999976" d="M23.494643 2.5401335c-13.8503871.0053417-16.9679708.3821607-17.7906417 5.2856468C5.288206 10.304107 5.0372456 10.30272 4.7008805 19.696338c-.3364319 9.395497-.358975 16.801858 2.9215854 16.801861l15.8721771.029528 15.809572-.029528c3.280561-.000003 3.320621-7.406364 2.984189-16.801861-.336366-9.393618-.587325-9.392231-1.003121-11.8705577-.822671-4.9034861-3.940254-5.2803051-17.79064-5.2856468z"/>
  <path fill="none" stroke="url(#q)" stroke-width=".99999994" d="M23.5625 1.53125C8.892246 1.536903 5.590119 1.935687 4.71875 7.125c-.440408 2.622789-.706224 2.621322-1.0625 12.5625-.356347 9.943165.1502482 17.781247 3.625 17.78125L23.5625 37.5l16.28125-.03125c3.474752-.000003 3.981347-7.838085 3.625-17.78125-.356276-9.941178-.622092-9.939711-1.0625-12.5625-.871368-5.189313-4.173496-5.588097-18.84375-5.59375z"/>
  <path fill="url(#r)" fill-rule="evenodd" d="M47.69706 42.6875a23.75956 5.8835783 0 1 1-47.51911963 0 23.75956 5.8835783 0 1 1 47.51911963 0z" opacity=".29775277" transform="matrix(.96825 0 0 .56361 -.3895468 20.661784)"/>
  <path fill="url(#s)" d="M47.5 41a23.5 7 0 1 1-47 0 23.5 7 0 1 1 47 0z" color="#000" opacity=".5254902" overflow="visible" style="marker:none" transform="matrix(.97781 0 0 .26046 .5539871 34.19965)"/>
  <path fill="url(#t)" stroke="url(#u)" stroke-linecap="round" stroke-linejoin="round" d="M3.5625 37.632042h40.5l3.5 7.930456h-47l3-7.930456z" color="#000" overflow="visible" style="marker:none"/>
  <path fill="none" stroke="#fff" stroke-linecap="round" d="M4.25 38.72853h39.3125l2 4.8h-43l1.6875-4.8z" color="#000" opacity=".7" overflow="visible" style="marker:none"/>
  <path fill="url(#v)" stroke="#000" stroke-linecap="round" stroke-width=".99999982" d="M5.2765625 37.637751H35.63125l.05625 4.972906H4.0625l1.2140625-4.972906z" color="#000" overflow="visible" style="marker:none"/>
  <path fill="url(#w)" stroke="#000" stroke-linecap="round" stroke-width=".99999988" d="M37.625 37.637751h4.3125l2 4.972906h-6.375l.0625-4.972906z" color="#000" overflow="visible" style="marker:none"/>
  <path fill="url(#x)" fill-rule="evenodd" d="M4.1875 42.06603h.625c.103875 0 .1875.083625.1875.1875v.625c0 .103875-.083625.1875-.1875.1875h-.625c-.103875 0-.1875-.083625-.1875-.1875v-.625c0-.103875.083625-.1875.1875-.1875zm2 0h.625c.103875 0 .1875.083625.1875.1875v.625c0 .103875-.083625.1875-.1875.1875h-.625c-.103875 0-.1875-.083625-.1875-.1875v-.625c0-.103875.083625-.1875.1875-.1875zm-1-1h.625c.103875 0 .1875.083625.1875.1875v.625c0 .103875-.083625.1875-.1875.1875h-.625c-.103875 0-.1875-.083625-.1875-.1875v-.625c0-.103875.083625-.1875.1875-.1875zm27 1h.625c.103875 0 .1875.083625.1875.1875v.625c0 .103875-.083625.1875-.1875.1875h-.625c-.103875 0-.1875-.083625-.1875-.1875v-.625c0-.103875.083625-.1875.1875-.1875zm2 0h.625c.103875 0 .1875.083625.1875.1875v.625c0 .103875-.083625.1875-.1875.1875h-.625c-.103875 0-.1875-.083625-.1875-.1875v-.625c0-.103875.083625-.1875.1875-.1875zm6 0h.625c.103875 0 .1875.083625.1875.1875v.625c0 .103875-.083625.1875-.1875.1875h-.625c-.103875 0-.1875-.083625-.1875-.1875v-.625c0-.103875.083625-.1875.1875-.1875zm2 0h.625c.103875 0 .1875.083625.1875.1875v.625c0 .103875-.083625.1875-.1875.1875h-.625c-.103875 0-.1875-.083625-.1875-.1875v-.625c0-.103875.083625-.1875.1875-.1875zm-3-1h.625c.103875 0 .1875.083625.1875.1875v.625c0 .103875-.083625.1875-.1875.1875h-.625c-.103875 0-.1875-.083625-.1875-.1875v-.625c0-.103875.083625-.1875.1875-.1875zm2 0h.625c.103875 0 .1875.083625.1875.1875v.625c0 .103875-.083625.1875-.1875.1875h-.625c-.103875 0-.1875-.083625-.1875-.1875v-.625c0-.103875.083625-.1875.1875-.1875zm-10 0h.625c.103875 0 .1875.083625.1875.1875v.625c0 .103875-.083625.1875-.1875.1875h-.625c-.103875 0-.1875-.083625-.1875-.1875v-.625c0-.103875.083625-.1875.1875-.1875zm2 0h.625c.103875 0 .1875.083625.1875.1875v.625c0 .103875-.083625.1875-.1875.1875h-.625c-.103875 0-.1875-.083625-.1875-.1875v-.625c0-.103875.083625-.1875.1875-.1875zm-6 0h.625c.103875 0 .1875.083625.1875.1875v.625c0 .103875-.083625.1875-.1875.1875h-.625c-.103875 0-.1875-.083625-.1875-.1875v-.625c0-.103875.083625-.1875.1875-.1875zm2 0h.625c.103875 0 .1875.083625.1875.1875v.625c0 .103875-.083625.1875-.1875.1875h-.625c-.103875 0-.1875-.083625-.1875-.1875v-.625c0-.103875.083625-.1875.1875-.1875zm-6 0h.625c.103875 0 .1875.083625.1875.1875v.625c0 .103875-.083625.1875-.1875.1875h-.625c-.103875 0-.1875-.083625-.1875-.1875v-.625c0-.103875.083625-.1875.1875-.1875zm2 0h.625c.103875 0 .1875.083625.1875.1875v.625c0 .103875-.083625.1875-.1875.1875h-.625c-.103875 0-.1875-.083625-.1875-.1875v-.625c0-.103875.083625-.1875.1875-.1875zm-6 0h.625c.103875 0 .1875.083625.1875.1875v.625c0 .103875-.083625.1875-.1875.1875h-.625c-.103875 0-.1875-.083625-.1875-.1875v-.625c0-.103875.083625-.1875.1875-.1875zm2 0h.625c.103875 0 .1875.083625.1875.1875v.625c0 .103875-.083625.1875-.1875.1875h-.625c-.103875 0-.1875-.083625-.1875-.1875v-.625c0-.103875.083625-.1875.1875-.1875zm-6 0h.625c.103875 0 .1875.083625.1875.1875v.625c0 .103875-.083625.1875-.1875.1875h-.625c-.103875 0-.1875-.083625-.1875-.1875v-.625c0-.103875.083625-.1875.1875-.1875zm2 0h.625c.103875 0 .1875.083625.1875.1875v.625c0 .103875-.083625.1875-.1875.1875h-.625c-.103875 0-.1875-.083625-.1875-.1875v-.625c0-.103875.083625-.1875.1875-.1875zm-6 0h.625c.103875 0 .1875.083625.1875.1875v.625c0 .103875-.083625.1875-.1875.1875h-.625c-.103875 0-.1875-.083625-.1875-.1875v-.625c0-.103875.083625-.1875.1875-.1875zm2 0h.625c.103875 0 .1875.083625.1875.1875v.625c0 .103875-.083625.1875-.1875.1875h-.625c-.103875 0-.1875-.083625-.1875-.1875v-.625c0-.103875.083625-.1875.1875-.1875zm-6 0h.625c.103875 0 .1875.083625.1875.1875v.625c0 .103875-.083625.1875-.1875.1875h-.625c-.103875 0-.1875-.083625-.1875-.1875v-.625c0-.103875.083625-.1875.1875-.1875zm2 0h.625c.103875 0 .1875.083625.1875.1875v.625c0 .103875-.083625.1875-.1875.1875h-.625c-.103875 0-.1875-.083625-.1875-.1875v-.625c0-.103875.083625-.1875.1875-.1875zm-3-1h.625c.103875 0 .1875.083625.1875.1875v.625c0 .103875-.083625.1875-.1875.1875h-.625c-.103875 0-.1875-.083625-.1875-.1875v-.625c0-.103875.083625-.1875.1875-.1875zm-1-1h.625c.103875 0 .1875.083625.1875.1875v.625c0 .103875-.083625.1875-.1875.1875h-.625c-.103875 0-.1875-.083625-.1875-.1875v-.625c0-.103875.083625-.1875.1875-.1875zm3 1h.625c.103875 0 .1875.083625.1875.1875v.625c0 .103875-.083625.1875-.1875.1875h-.625c-.103875 0-.1875-.083625-.1875-.1875v-.625c0-.103875.083625-.1875.1875-.1875zm2 0h.625c.103875 0 .1875.083625.1875.1875v.625c0 .103875-.083625.1875-.1875.1875h-.625c-.103875 0-.1875-.083625-.1875-.1875v-.625c0-.103875.083625-.1875.1875-.1875zm2 0h.625c.103875 0 .1875.083625.1875.1875v.625c0 .103875-.083625.1875-.1875.1875h-.625c-.103875 0-.1875-.083625-.1875-.1875v-.625c0-.103875.083625-.1875.1875-.1875zm2 0h.625c.103875 0 .1875.083625.1875.1875v.625c0 .103875-.083625.1875-.1875.1875h-.625c-.103875 0-.1875-.083625-.1875-.1875v-.625c0-.103875.083625-.1875.1875-.1875zm2 0h.625c.103875 0 .1875.083625.1875.1875v.625c0 .103875-.083625.1875-.1875.1875h-.625c-.103875 0-.1875-.083625-.1875-.1875v-.625c0-.103875.083625-.1875.1875-.1875zm2 0h.625c.103875 0 .1875.083625.1875.1875v.625c0 .103875-.083625.1875-.1875.1875h-.625c-.103875 0-.1875-.083625-.1875-.1875v-.625c0-.103875.083625-.1875.1875-.1875zm2 0h.625c.103875 0 .1875.083625.1875.1875v.625c0 .103875-.083625.1875-.1875.1875h-.625c-.103875 0-.1875-.083625-.1875-.1875v-.625c0-.103875.083625-.1875.1875-.1875zm2 0h.625c.103875 0 .1875.083625.1875.1875v.625c0 .103875-.083625.1875-.1875.1875h-.625c-.103875 0-.1875-.083625-.1875-.1875v-.625c0-.103875.083625-.1875.1875-.1875zm2 0h.625c.103875 0 .1875.083625.1875.1875v.625c0 .103875-.083625.1875-.1875.1875h-.625c-.103875 0-.1875-.083625-.1875-.1875v-.625c0-.103875.083625-.1875.1875-.1875zm2 0h.625c.103875 0 .1875.083625.1875.1875v.625c0 .103875-.083625.1875-.1875.1875h-.625c-.103875 0-.1875-.083625-.1875-.1875v-.625c0-.103875.083625-.1875.1875-.1875zm2 0h.625c.103875 0 .1875.083625.1875.1875v.625c0 .103875-.083625.1875-.1875.1875h-.625c-.103875 0-.1875-.083625-.1875-.1875v-.625c0-.103875.083625-.1875.1875-.1875zm2 0h.625c.103875 0 .1875.083625.1875.1875v.625c0 .103875-.083625.1875-.1875.1875h-.625c-.103875 0-.1875-.083625-.1875-.1875v-.625c0-.103875.083625-.1875.1875-.1875zm2 0h.625c.103875 0 .1875.083625.1875.1875v.625c0 .103875-.083625.1875-.1875.1875h-.625c-.103875 0-.1875-.083625-.1875-.1875v-.625c0-.103875.083625-.1875.1875-.1875zm8 0h.625c.103875 0 .1875.083625.1875.1875v.625c0 .103875-.083625.1875-.1875.1875h-.625c-.103875 0-.1875-.083625-.1875-.1875v-.625c0-.103875.083625-.1875.1875-.1875zm2 0h.625c.103875 0 .1875.083625.1875.1875v.625c0 .103875-.083625.1875-.1875.1875h-.625c-.103875 0-.1875-.083625-.1875-.1875v-.625c0-.103875.083625-.1875.1875-.1875zm-3-1h.625c.103875 0 .1875.083625.1875.1875v.625c0 .103875-.083625.1875-.1875.1875h-.625c-.103875 0-.1875-.083625-.1875-.1875v-.625c0-.103875.083625-.1875.1875-.1875zm2 0h.625c.103875 0 .1875.083625.1875.1875v.625c0 .103875-.083625.1875-.1875.1875h-.625c-.103875 0-.1875-.083625-.1875-.1875v-.625c0-.103875.083625-.1875.1875-.1875zm-10 0h.625c.103875 0 .1875.083625.1875.1875v.625c0 .103875-.083625.1875-.1875.1875h-.625c-.103875 0-.1875-.083625-.1875-.1875v-.625c0-.103875.083625-.1875.1875-.1875zm2 0h.625c.103875 0 .1875.083625.1875.1875v.625c0 .103875-.083625.1875-.1875.1875h-.625c-.103875 0-.1875-.083625-.1875-.1875v-.625c0-.103875.083625-.1875.1875-.1875zm-6 0h.625c.103875 0 .1875.083625.1875.1875v.625c0 .103875-.083625.1875-.1875.1875h-.625c-.103875 0-.1875-.083625-.1875-.1875v-.625c0-.103875.083625-.1875.1875-.1875zm2 0h.625c.103875 0 .1875.083625.1875.1875v.625c0 .103875-.083625.1875-.1875.1875h-.625c-.103875 0-.1875-.083625-.1875-.1875v-.625c0-.103875.083625-.1875.1875-.1875zm-6 0h.625c.103875 0 .1875.083625.1875.1875v.625c0 .103875-.083625.1875-.1875.1875h-.625c-.103875 0-.1875-.083625-.1875-.1875v-.625c0-.103875.083625-.1875.1875-.1875zm2 0h.625c.103875 0 .1875.083625.1875.1875v.625c0 .103875-.083625.1875-.1875.1875h-.625c-.103875 0-.1875-.083625-.1875-.1875v-.625c0-.103875.083625-.1875.1875-.1875zm-6 0h.625c.103875 0 .1875.083625.1875.1875v.625c0 .103875-.083625.1875-.1875.1875h-.625c-.103875 0-.1875-.083625-.1875-.1875v-.625c0-.103875.083625-.1875.1875-.1875zm2 0h.625c.103875 0 .1875.083625.1875.1875v.625c0 .103875-.083625.1875-.1875.1875h-.625c-.103875 0-.1875-.083625-.1875-.1875v-.625c0-.103875.083625-.1875.1875-.1875zm-6 0h.625c.103875 0 .1875.083625.1875.1875v.625c0 .103875-.083625.1875-.1875.1875h-.625c-.103875 0-.1875-.083625-.1875-.1875v-.625c0-.103875.083625-.1875.1875-.1875zm2 0h.625c.103875 0 .1875.083625.1875.1875v.625c0 .103875-.083625.1875-.1875.1875h-.625c-.103875 0-.1875-.083625-.1875-.1875v-.625c0-.103875.083625-.1875.1875-.1875zm-6 0h.625c.103875 0 .1875.083625.1875.1875v.625c0 .103875-.083625.1875-.1875.1875h-.625c-.103875 0-.1875-.083625-.1875-.1875v-.625c0-.103875.083625-.1875.1875-.1875zm2 0h.625c.103875 0 .1875.083625.1875.1875v.625c0 .103875-.083625.1875-.1875.1875h-.625c-.103875 0-.1875-.083625-.1875-.1875v-.625c0-.103875.083625-.1875.1875-.1875zm-6 0h.625c.103875 0 .1875.083625.1875.1875v.625c0 .103875-.083625.1875-.1875.1875h-.625c-.103875 0-.1875-.083625-.1875-.1875v-.625c0-.103875.083625-.1875.1875-.1875zm2 0h.625c.103875 0 .1875.083625.1875.1875v.625c0 .103875-.083625.1875-.1875.1875h-.625c-.103875 0-.1875-.083625-.1875-.1875v-.625c0-.103875.083625-.1875.1875-.1875zm29 1h.625c.103875 0 .1875.083625.1875.1875v.625c0 .103875-.083625.1875-.1875.1875h-.625c-.103875 0-.1875-.083625-.1875-.1875v-.625c0-.103875.083625-.1875.1875-.1875z" color="#000" overflow="visible" style="marker:none"/>
  <rect width="6.875" height="1" x="20.125" y="28" fill="#2e3436" fill-rule="evenodd" color="#000" opacity=".73360656" overflow="visible" rx="0" ry="0" style="marker:none"/>
</svg>