<svg xmlns="http://www.w3.org/2000/svg" version="1.2" viewBox="2.68 1.87 122.47 122.92">
	<style>.a{fill:#fcc11a}.b{fill:#ffa722}</style>
	<path class="a"
		d="m37.4 42c-9.7 12.4-9.5 34.6 2.9 45.6 14.1 12.5 33.9 12.3 46.4 0.9 14.9-13.8 14.1-36.7 0.8-49.7-13.2-13-37-13.7-50.1 3.2z"></path>
	<path class="b"
		d="m63 20.3c-0.9 1.7-0.6 3.1 1.2 3.5 1.9 0.4 13.4 2.3 14.4 2.4 1.4 0 1.9-1 1.7-2.2-0.2-1.3-3-18.5-3.2-20.1-0.3-1.6-2-3.1-3.5-1-1.6 2.1-9.9 16.1-10.6 17.4z"></path>
	<path class="b"
		d="m92.8 32.2c-1.8 0.6-1.8 1.7-0.8 3.1 1 1.4 7.7 11.6 8.3 12.3 0.6 0.7 1.6 0.9 2.5-0.2 0.9-1 11.9-16.4 12.7-17.4 1.3-1.6 0.5-3.2-1.5-2.7-1.5 0.4-20.1 4.6-21.2 4.9z"></path>
	<path class="b"
		d="m106.6 61.9c-1.3-0.8-3-0.6-3.4 1.1-0.5 1.7-2.4 13.8-2.6 14.9-0.2 1 0.6 2.1 2 1.8 1.3-0.3 19.4-2.9 20.6-3.2 2.1-0.6 2.8-2.7 0.6-4.3-1.4-1-16-9.6-17.2-10.3z"></path>
	<path class="b"
		d="m92.1 90.6c1.4-0.8 2.6-0.2 3 1.4 0.3 1.6 4.2 17.8 4.8 20.8 0.3 1.5-1.4 2.7-2.8 1.8-1.4-0.9-16.7-11.5-17.7-12.4-1.4-1.2-0.4-2.5 0.3-3.2 1.4-1.3 11.1-7.7 12.4-8.4z"></path>
	<path class="b"
		d="m49.5 99.5c-1.7-0.2-2.3 1.4-2 2.8 0.3 1.4 2.9 19.2 3.1 20.6 0.3 1.9 2.3 2.7 3.6 0.8 1.3-2 10.3-16.4 11.1-17.8 1.3-2.5 0.3-3-1-3.6-1.3-0.6-12.9-2.6-14.8-2.8z"></path>
	<path class="b"
		d="m24.2 79c1.3-2 2.8-1.5 4 0.4 0.8 1.4 7.4 10.2 8 11.2 0.6 1 0.9 2.8-1.1 3.2-1.9 0.5-17.6 4.6-20.1 5.1-2.5 0.4-3.9-1.5-2.3-3.6 0.9-1.3 10.8-15.1 11.5-16.3z"></path>
	<path class="b"
		d="m20.9 63.7c2.2 1 3.3 0.6 3.8-1 0.6-2.1 2.4-11.8 2.5-14 0.1-1.4-0.5-2.8-2.7-2.4-2.2 0.3-18 2.5-20 3.2-2.4 0.9-2.2 3.4-0.7 4.3 1.9 0.9 15.5 9.2 17.1 9.9z"></path>
	<path class="b"
		d="m48.2 26.8c1.3-1 0.9-2.5-0.2-3.3-1.2-0.8-15.3-11-17.1-12.4-1.6-1.2-3.5-0.8-3 2 0.4 2.1 4.9 19.8 5.2 21 0.4 1.4 1.4 2.1 2.7 1.2 1.2-0.9 11.1-7.5 12.4-8.5z"></path>
</svg>