<svg version="1.2" xmlns="http://www.w3.org/2000/svg" viewBox="0 0 55 51" width="55" height="51"><defs><linearGradient id="P" gradientUnits="userSpaceOnUse"/><linearGradient id="g1" x2="1" href="#P" gradientTransform="matrix(44,48,-48.21,44.192,2,-1)"><stop stop-color="#fff"/><stop offset="1" stop-color="#d8ecff"/></linearGradient><linearGradient id="g2" x2="1" href="#P" gradientTransform="matrix(42.087,13.391,-7.376,23.182,2.957,1.304)"><stop stop-color="#7cc7ff"/><stop offset="1" stop-color="#3d7be6"/></linearGradient></defs><style>.a{fill:url(#g1);stroke:#1f3d66;stroke-width:2}.b{fill:url(#g2)}.c{fill:#ff5f57}.d{fill:#febc2e}.e{fill:#28c840}.f{fill:#5ea3ff}.g{fill:#f8f5ea;stroke:#1f3d66;stroke-linejoin:round;stroke-width:2}</style><path fill-rule="evenodd" class="a" d="m8 1h32c3.9 0 7 3.1 7 7v28c0 3.9-3.1 7-7 7h-32c-3.9 0-7-3.1-7-7v-28c0-3.9 3.1-7 7-7z"/><path class="b" d="m8.7 1.3h30.6q1.3 0 2.6 0.5 1.2 0.5 2.1 1.5 1 0.9 1.5 2.1 0.5 1.3 0.5 2.6v6.7h-44v-6.7q0-1.3 0.5-2.6 0.5-1.2 1.5-2.1 0.9-1 2.1-1.5 1.3-0.5 2.6-0.5z"/><path fill-rule="evenodd" class="c" d="m9 10.2c-1.2 0-2.2-1-2.2-2.2 0-1.2 1-2.2 2.2-2.2 1.2 0 2.2 1 2.2 2.2 0 1.2-1 2.2-2.2 2.2z"/><path fill-rule="evenodd" class="d" d="m16 10.2c-1.2 0-2.2-1-2.2-2.2 0-1.2 1-2.2 2.2-2.2 1.2 0 2.2 1 2.2 2.2 0 1.2-1 2.2-2.2 2.2z"/><path fill-rule="evenodd" class="e" d="m23 10.2c-1.2 0-2.2-1-2.2-2.2 0-1.2 1-2.2 2.2-2.2 1.2 0 2.2 1 2.2 2.2 0 1.2-1 2.2-2.2 2.2z"/><path fill-rule="evenodd" class="c" d="m12 22h6c1.7 0 3 1.3 3 3v6c0 1.7-1.3 3-3 3h-6c-1.7 0-3-1.3-3-3v-6c0-1.7 1.3-3 3-3z"/><path fill-rule="evenodd" class="f" d="m30 22h6c1.7 0 3 1.3 3 3v6c0 1.7-1.3 3-3 3h-6c-1.7 0-3-1.3-3-3v-6c0-1.7 1.3-3 3-3z"/><path class="g" d="m31.6 38.5c0-8.1 6.6-14.7 14.7-14.7 2.6 0 4.7 2.1 4.7 4.7 0 1.8-1 3.4-2.6 4.2-0.9 0.4-1.3 1.5-0.8 2.4 0.4 0.8 1.2 1.2 2.1 1.1 2.7-0.2 4.8 2 4.3 4.6-0.9 4.8-5.1 8.4-10.2 8.4-6.7 0-12.2-4.8-12.2-10.7z"/><path fill-rule="evenodd" class="c" d="m38 35.1c-1.3 0-2.3-1-2.3-2.3 0-1.3 1-2.3 2.3-2.3 1.3 0 2.3 1 2.3 2.3 0 1.3-1 2.3-2.3 2.3z"/><path fill-rule="evenodd" class="d" d="m43.6 36.8c-1.3 0-2.3-1-2.3-2.3 0-1.3 1-2.3 2.3-2.3 1.3 0 2.3 1 2.3 2.3 0 1.3-1 2.3-2.3 2.3z"/><path fill-rule="evenodd" class="e" d="m36.3 41.4c-1.3 0-2.3-1-2.3-2.3 0-1.3 1-2.3 2.3-2.3 1.3 0 2.3 1 2.3 2.3 0 1.3-1 2.3-2.3 2.3z"/><path fill-rule="evenodd" class="f" d="m43 43.6c-1.3 0-2.3-1-2.3-2.3 0-1.3 1-2.3 2.3-2.3 1.3 0 2.3 1 2.3 2.3 0 1.3-1 2.3-2.3 2.3z"/></svg>