<svg xmlns="http://www.w3.org/2000/svg" width="20" height="16" viewBox="0 0 20 16" preserveAspectRatio="none">
  <g shape-rendering="geometricPrecision">
    <rect x="0" y="0" width="2" height="6" rx="0.75" ry="0.75" fill="#ff1a1a"/>
    <rect x="3" y="0" width="2" height="6" rx="0.75" ry="0.75" fill="#00ff00"/>
    <rect x="6" y="0" width="2" height="6" rx="0.75" ry="0.75" fill="#0c24ff"/>
    <rect x="0" y="8" width="2" height="6" rx="0.75" ry="0.75" fill="#ff1a1a"/>
    <rect x="3" y="8" width="2" height="6" rx="0.75" ry="0.75" fill="#00ff00"/>
    <rect x="6" y="8" width="2" height="6" rx="0.75" ry="0.75" fill="#0c24ff"/>
    <rect x="10" y="-4" width="2" height="6" rx="0.75" ry="0.75" fill="#ff1a1a"/>
    <rect x="13" y="-4" width="2" height="6" rx="0.75" ry="0.75" fill="#00ff00"/>
    <rect x="16" y="-4" width="2" height="6" rx="0.75" ry="0.75" fill="#0c24ff"/>
    <rect x="10" y="4" width="2" height="6" rx="0.75" ry="0.75" fill="#ff1a1a"/>
    <rect x="13" y="4" width="2" height="6" rx="0.75" ry="0.75" fill="#00ff00"/>
    <rect x="16" y="4" width="2" height="6" rx="0.75" ry="0.75" fill="#0c24ff"/>
    <rect x="10" y="12" width="2" height="6" rx="0.75" ry="0.75" fill="#ff1a1a"/>
    <rect x="13" y="12" width="2" height="6" rx="0.75" ry="0.75" fill="#00ff00"/>
    <rect x="16" y="12" width="2" height="6" rx="0.75" ry="0.75" fill="#0c24ff"/>
  </g>
</svg>