<svg xmlns="http://www.w3.org/2000/svg" width="27.614521" height="45" viewBox="0 0 27.614521 45"
    version="1.1">
    <g
        transform="matrix(0.09053050878145935 0 0 0.09053050878145935 -9.363752308416317 0.15081601144799742)">
        <path
            d="M0 0 C7.35712878 4.38702864 11.70998437 9.99409741 15.23828125 17.734375 C16.54608653 23.02424211 16.31744401 28.20776727 16.234375 33.6328125 C16.22535156 34.75042969 16.21632813 35.86804687 16.20703125 37.01953125 C16.18355846 39.76584712 16.15072228 42.51171722 16.109375 45.2578125 C17.36371338 45.23686523 18.61805176 45.21591797 19.91040039 45.19433594 C24.63489022 45.12106632 29.35933161 45.07570155 34.08422852 45.03808594 C36.11589039 45.01816611 38.14749644 44.99102012 40.17895508 44.95605469 C62.30042978 44.58527325 81.53477166 48.23490793 98.03271484 64.05786133 C106.70689253 72.72165965 112.94257292 81.69722666 117.109375 93.2578125 C117.37171086 93.97951504 117.63404673 94.70121758 117.90433216 95.44478989 C121.22350182 106.41486164 120.50574124 117.76556483 120.44995117 129.11035156 C120.44910402 131.52588388 120.44958177 133.94141698 120.45127869 136.35694885 C120.45204776 142.21080871 120.43910215 148.06451993 120.41996571 153.9183459 C120.39842959 160.73589413 120.39402237 167.55342194 120.3906012 174.37099943 C120.3840518 186.52682381 120.3641319 198.68258746 120.33569336 210.83837891 C120.30811349 222.63948261 120.2868992 234.44056975 120.27416992 246.24169922 C120.27338175 246.97036045 120.27259358 247.69902169 120.27178153 248.44976357 C120.26786613 252.10561331 120.26407507 255.76146316 120.26034582 259.4173131 C120.22929704 289.69752304 120.17627809 319.9776593 120.109375 350.2578125 C120.89038574 350.55727783 121.67139648 350.85674316 122.47607422 351.1652832 C125.19600106 352.29375276 127.00621646 353.53608645 129.234375 355.4453125 C129.89695312 355.99574219 130.55953125 356.54617188 131.2421875 357.11328125 C136.39598533 363.03260135 136.56626475 369.22378049 136.54296875 376.72265625 C136.5482106 377.7147963 136.55345245 378.70693634 136.55885315 379.72914124 C136.56525279 381.81933663 136.56396314 383.90956813 136.55541992 385.99975586 C136.54691023 389.18213578 136.57570066 392.36271891 136.60742188 395.54492188 C136.60903422 397.5833328 136.60845573 399.62174688 136.60546875 401.66015625 C136.61670273 402.60310043 136.62793671 403.54604462 136.63951111 404.51756287 C136.56432315 411.71304682 134.92793313 417.0414062 130.14453125 422.5 C129.49355469 423.03882813 128.84257812 423.57765625 128.171875 424.1328125 C127.52347656 424.68710937 126.87507813 425.24140625 126.20703125 425.8125 C121.38195212 429.13704242 117.03809989 429.52565637 111.296875 429.3828125 C110.60400391 429.37378906 109.91113281 429.36476563 109.19726562 429.35546875 C107.50115105 429.33207407 105.80521629 429.29620891 104.109375 429.2578125 C104.11825745 429.82886719 104.12713989 430.39992188 104.1362915 430.98828125 C104.2251254 436.95839376 104.28525806 442.928317 104.32910156 448.89892578 C104.34915546 451.12393832 104.37640565 453.34889857 104.41113281 455.57373047 C104.45992434 458.78105615 104.48240662 461.98768201 104.5 465.1953125 C104.52064514 466.18208984 104.54129028 467.16886719 104.56256104 468.18554688 C104.5649311 475.56245656 103.05111061 480.90084185 98.14453125 486.5 C97.49355469 487.03882813 96.84257812 487.57765625 96.171875 488.1328125 C95.52347656 488.68710937 94.87507813 489.24140625 94.20703125 489.8125 C87.70579943 494.29193347 80.73796583 493.93244978 73.109375 493.2578125 C66.44978167 491.57695667 61.92390053 486.79402928 58.109375 481.2578125 C56.52154118 477.82586615 55.86198492 475.14867323 55.88232422 471.37573242 C55.88255081 469.96483589 55.88255081 469.96483589 55.88278198 468.5254364 C55.89310455 467.5231752 55.90342712 466.520914 55.9140625 465.48828125 C55.9168924 464.45214188 55.91972229 463.4160025 55.92263794 462.34846497 C55.93381046 459.04729543 55.95890995 455.74639969 55.984375 452.4453125 C55.99440857 450.20377997 56.00353376 447.96224317 56.01171875 445.72070312 C56.03374026 440.23296783 56.06825024 434.74543655 56.109375 429.2578125 C50.829375 429.2578125 45.549375 429.2578125 40.109375 429.2578125 C40.13032227 430.6396875 40.15126953 432.0215625 40.17285156 433.4453125 C40.245522 438.59641057 40.29127323 443.74746374 40.32910156 448.89892578 C40.34915546 451.12393832 40.37640565 453.34889857 40.41113281 455.57373047 C40.45992434 458.78105615 40.48240662 461.98768201 40.5 465.1953125 C40.52064514 466.18208984 40.54129028 467.16886719 40.56256104 468.18554688 C40.5649311 475.56245656 39.05111061 480.90084185 34.14453125 486.5 C33.49355469 487.03882813 32.84257812 487.57765625 32.171875 488.1328125 C31.52347656 488.68710937 30.87507812 489.24140625 30.20703125 489.8125 C23.70579943 494.29193347 16.73796583 493.93244978 9.109375 493.2578125 C2.44978167 491.57695667 -2.07609947 486.79402928 -5.890625 481.2578125 C-7.47845882 477.82586615 -8.13801508 475.14867323 -8.11767578 471.37573242 C-8.11744919 469.96483589 -8.11744919 469.96483589 -8.11721802 468.5254364 C-8.10689545 467.5231752 -8.09657288 466.520914 -8.0859375 465.48828125 C-8.0831076 464.45214188 -8.08027771 463.4160025 -8.07736206 462.34846497 C-8.06618954 459.04729543 -8.04109005 455.74639969 -8.015625 452.4453125 C-8.00559143 450.20377997 -7.99646624 447.96224317 -7.98828125 445.72070312 C-7.96625974 440.23296783 -7.93174976 434.74543655 -7.890625 429.2578125 C-13.170625 429.2578125 -18.450625 429.2578125 -23.890625 429.2578125 C-23.86967773 430.6396875 -23.84873047 432.0215625 -23.82714844 433.4453125 C-23.754478 438.59641057 -23.70872677 443.74746374 -23.67089844 448.89892578 C-23.65084454 451.12393832 -23.62359435 453.34889857 -23.58886719 455.57373047 C-23.54007566 458.78105615 -23.51759338 461.98768201 -23.5 465.1953125 C-23.47935486 466.18208984 -23.45870972 467.16886719 -23.43743896 468.18554688 C-23.4350689 475.56245656 -24.94888939 480.90084185 -29.85546875 486.5 C-30.50644531 487.03882813 -31.15742188 487.57765625 -31.828125 488.1328125 C-32.47652344 488.68710937 -33.12492188 489.24140625 -33.79296875 489.8125 C-40.29420057 494.29193347 -47.26203417 493.93244978 -54.890625 493.2578125 C-61.55021833 491.57695667 -66.07609947 486.79402928 -69.890625 481.2578125 C-71.47845882 477.82586615 -72.13801508 475.14867323 -72.11767578 471.37573242 C-72.11752472 470.43513474 -72.11737366 469.49453705 -72.11721802 468.5254364 C-72.10689545 467.5231752 -72.09657288 466.520914 -72.0859375 465.48828125 C-72.0831076 464.45214188 -72.08027771 463.4160025 -72.07736206 462.34846497 C-72.06618954 459.04729543 -72.04109005 455.74639969 -72.015625 452.4453125 C-72.00559143 450.20377997 -71.99646624 447.96224317 -71.98828125 445.72070312 C-71.96625974 440.23296783 -71.93174976 434.74543655 -71.890625 429.2578125 C-77.170625 429.2578125 -82.450625 429.2578125 -87.890625 429.2578125 C-87.8592041 431.330625 -87.8592041 431.330625 -87.82714844 433.4453125 C-87.754478 438.59641057 -87.70872677 443.74746374 -87.67089844 448.89892578 C-87.65084454 451.12393832 -87.62359435 453.34889857 -87.58886719 455.57373047 C-87.54007566 458.78105615 -87.51759338 461.98768201 -87.5 465.1953125 C-87.47935486 466.18208984 -87.45870972 467.16886719 -87.43743896 468.18554688 C-87.4350689 475.56245656 -88.94888939 480.90084185 -93.85546875 486.5 C-94.83193359 487.30824219 -94.83193359 487.30824219 -95.828125 488.1328125 C-96.47652344 488.68710937 -97.12492187 489.24140625 -97.79296875 489.8125 C-104.29420057 494.29193347 -111.26203417 493.93244978 -118.890625 493.2578125 C-125.55021833 491.57695667 -130.07609947 486.79402928 -133.890625 481.2578125 C-135.47845882 477.82586615 -136.13801508 475.14867323 -136.11767578 471.37573242 C-136.11752472 470.43513474 -136.11737366 469.49453705 -136.11721802 468.5254364 C-136.10689545 467.5231752 -136.09657288 466.520914 -136.0859375 465.48828125 C-136.0831076 464.45214188 -136.08027771 463.4160025 -136.07736206 462.34846497 C-136.06618954 459.04729543 -136.04109005 455.74639969 -136.015625 452.4453125 C-136.00559143 450.20377997 -135.99646624 447.96224317 -135.98828125 445.72070312 C-135.96625978 440.2329799 -135.93281121 434.74541576 -135.890625 429.2578125 C-136.92123047 429.27521484 -137.95183594 429.29261719 -139.01367188 429.31054688 C-140.37890216 429.32462141 -141.74413687 429.33827089 -143.109375 429.3515625 C-143.78709961 429.36413086 -144.46482422 429.37669922 -145.16308594 429.38964844 C-152.00411644 429.43958297 -155.9593214 428.05481335 -160.8515625 423.38671875 C-167.20902796 416.52325094 -168.20523763 411.14133049 -168.2265625 401.98828125 C-168.2365477 400.49582634 -168.2365477 400.49582634 -168.24673462 398.97322083 C-168.25684398 396.87108199 -168.26155217 394.76891117 -168.26123047 392.66674805 C-168.26559577 389.46674078 -168.30191261 386.26812212 -168.33984375 383.06835938 C-168.34571399 381.02083802 -168.349682 378.97331015 -168.3515625 376.92578125 C-168.36593353 375.97656296 -168.38030457 375.02734467 -168.39511108 374.04936218 C-168.34574397 366.79494129 -166.71745255 361.47664153 -161.890625 355.98046875 C-161.230625 355.43261719 -160.570625 354.88476562 -159.890625 354.3203125 C-159.230625 353.75441406 -158.570625 353.18851562 -157.890625 352.60546875 C-155.83766363 351.22212564 -154.27884176 350.78738713 -151.890625 350.2578125 C-151.89431217 349.00897498 -151.89799934 347.76013746 -151.90179825 346.47345638 C-151.98856974 316.77870398 -152.05445697 287.08398447 -152.09488632 257.38913622 C-152.0998887 253.72825531 -152.10506603 250.06737466 -152.11035156 246.40649414 C-152.1114008 245.67772818 -152.11245005 244.94896222 -152.11353108 244.19811244 C-152.13090086 232.42295969 -152.16241948 220.64788565 -152.19923618 208.87277948 C-152.23674131 196.77592921 -152.258881 184.67911996 -152.26697898 172.58221394 C-152.27195833 165.79365655 -152.28385894 159.00526277 -152.31354523 152.21676445 C-152.34082564 145.81870418 -152.34904445 139.42089428 -152.34305573 133.02278137 C-152.34415032 130.68279723 -152.35202834 128.34280416 -152.3674469 126.00287056 C-152.50767085 103.61185201 -149.14178421 84.07040758 -133.09057617 67.33447266 C-124.42576965 58.65928557 -115.4509565 52.42726327 -103.890625 48.2578125 C-103.11525391 47.97462158 -102.33988281 47.69143066 -101.54101562 47.3996582 C-91.01102726 44.17128542 -80.02911052 44.93154453 -69.140625 45.0703125 C-67.0755306 45.08538736 -65.01042555 45.09907081 -62.9453125 45.11132812 C-57.92681666 45.14410976 -52.90884049 45.19573739 -47.890625 45.2578125 C-47.9220459 44.24581787 -47.9220459 44.24581787 -47.95410156 43.21337891 C-48.03817086 40.10334683 -48.08956944 36.99355491 -48.140625 33.8828125 C-48.17414063 32.82191406 -48.20765625 31.76101562 -48.2421875 30.66796875 C-48.36023263 21.04729036 -46.28189052 12.95010185 -39.59375 5.7890625 C-28.99673947 -3.73852495 -12.95346121 -6.21592266 0 0 Z "
            fill="#000000" transform="translate(271.890625,10.7421875)"></path>

        <path
            d="M0 0 C1.06655146 -0.00638882 2.13310292 -0.01277764 3.23197412 -0.01936007 C6.81205226 -0.03464173 10.39102942 -0.01412636 13.97106934 0.00622559 C16.53509387 0.00272537 19.09911623 -0.00293207 21.66313171 -0.0105896 C27.908074 -0.02337855 34.15260654 -0.0128818 40.39751375 0.00852364 C47.66945508 0.03253449 54.94132192 0.03081922 62.21329409 0.02821773 C75.18812133 0.02452737 88.1627954 0.04535462 101.13757324 0.07946777 C113.72843294 0.11255926 126.31913187 0.12672609 138.91003418 0.1204834 C152.61975242 0.11371942 166.32940332 0.11617982 180.03911161 0.1358428 C180.76407665 0.13688229 181.48904168 0.13792177 182.23597535 0.13899276 C183.69203852 0.14108366 185.14810165 0.14319463 186.60416475 0.14532593 C191.6733968 0.15222168 196.74260811 0.15289081 201.81184387 0.15144348 C208.63430134 0.14985348 215.45653887 0.16474801 222.27895546 0.19067001 C224.78598916 0.19784474 227.29304335 0.19990919 229.80008507 0.19655228 C233.21613634 0.19285007 236.63162138 0.20754199 240.04760742 0.22705078 C241.04517012 0.22172286 242.04273282 0.21639493 243.07052469 0.21090555 C247.99943306 0.25963644 251.57357503 0.30772029 255.52380371 3.62145996 C257.11386903 6.80159059 256.70797448 10.24116653 256.72692871 13.73474121 C256.73262878 14.54130661 256.73832886 15.34787201 256.74420166 16.17887878 C256.75365566 17.88783454 256.76018723 19.59680856 256.76403809 21.30578613 C256.77372691 23.91329037 256.80473871 26.52000074 256.83630371 29.12731934 C256.84283556 30.78812195 256.84808532 32.4489302 256.85192871 34.10974121 C256.86427551 34.88699051 256.87662231 35.66423981 256.88934326 36.46504211 C256.87074799 41.01261479 256.44730453 44.0604236 253.52380371 47.62145996 C250.70849612 48.55989582 249.00194558 48.74829003 246.08969975 48.75288773 C245.17702715 48.75672887 244.26435455 48.76057002 243.32402521 48.76452756 C242.31995471 48.76366108 241.31588421 48.76279459 240.28138733 48.76190186 C238.68306506 48.76635854 238.68306506 48.76635854 237.05245346 48.77090526 C233.46420103 48.77961143 229.87598189 48.78110211 226.28771973 48.78259277 C223.72237069 48.78721951 221.15702234 48.79224397 218.5916748 48.79763794 C211.6104013 48.81077599 204.6291388 48.81724586 197.64785504 48.8216486 C193.29037622 48.8244103 188.93289961 48.82864747 184.57542229 48.83315277 C172.51499477 48.84534453 160.45456903 48.85564471 148.39413548 48.85902786 C147.62220055 48.85924743 146.85026562 48.85946699 146.05493873 48.85969321 C144.8942458 48.86002063 144.8942458 48.86002063 143.71010453 48.86035466 C142.1420635 48.86079813 140.57402247 48.86124469 139.00598145 48.86169434 C137.83927438 48.86202648 137.83927438 48.86202648 136.64899748 48.86236534 C124.03890394 48.86631542 111.42886811 48.88377626 98.81879688 48.90705386 C85.87777827 48.93074998 72.93678865 48.94322888 59.99574798 48.94439578 C52.72752135 48.94531341 45.45936996 48.95108797 38.19116402 48.96921539 C31.35810957 48.98619735 24.52520037 48.98788208 17.69213104 48.97907639 C15.17982794 48.97830271 12.66751733 48.98269194 10.15523338 48.99253464 C6.73438378 49.0051544 3.31404897 48.99943161 -0.10679626 48.98895264 C-1.10863604 48.99700904 -2.11047583 49.00506545 -3.14267439 49.01336598 C-4.05795473 49.00677614 -4.97323507 49.0001863 -5.91625118 48.99339676 C-6.70596213 48.99399385 -7.49567308 48.99459094 -8.30931467 48.99520612 C-11.07472594 48.5182249 -12.44036705 47.52758109 -14.47619629 45.62145996 C-16.43441583 39.74680133 -15.78325915 33.02613825 -15.82629395 26.86169434 C-15.84286271 25.12164952 -15.87016518 23.38167301 -15.9083252 21.64196777 C-15.9631651 19.1269621 -15.98497489 16.61354589 -15.99963379 14.09802246 C-16.02230316 13.32391022 -16.04497253 12.54979797 -16.06832886 11.75222778 C-16.05407338 8.09733553 -15.69572944 5.93715407 -13.59449005 2.91551971 C-9.10845881 -0.38475425 -5.4387499 -0.06824778 0 0 Z "
            fill="#A9B1BC" transform="translate(135.4761962890625,375.3785400390625)"></path>

        <path
            d="M0 0 C5.67476113 1.96434039 9.31400331 5.62800662 12 11 C12.08683445 13.77160626 12.1155579 16.51774765 12.09765625 19.2890625 C12.09553383 20.51669815 12.09553383 20.51669815 12.09336853 21.76913452 C12.0877629 24.38779325 12.07520948 27.00636704 12.0625 29.625 C12.05748572 31.39843627 12.05292269 33.17187387 12.04882812 34.9453125 C12.03779164 39.29690782 12.02052325 43.6484395 12 48 C12.99906372 47.98334541 12.99906372 47.98334541 14.01831055 47.96635437 C21.02769388 47.85467942 28.03681963 47.77988966 35.046875 47.7253418 C37.65375047 47.70038715 40.26055735 47.66641113 42.8671875 47.62280273 C61.76592329 47.3148287 78.09761584 47.54790991 94 59 C94.6084375 59.41507813 95.216875 59.83015625 95.84375 60.2578125 C104.14742809 66.56105905 110.58067479 77.3119119 114 87 C114.33 89.97 114.66 92.94 115 96 C36.46 96 -42.08 96 -123 96 C-121.4540985 82.08688646 -115.14435333 70.02868849 -104.43359375 60.78515625 C-91.35149758 50.7921468 -79.06409949 47.66284934 -62.87109375 47.8046875 C-61.64084976 47.8075174 -60.41060577 47.81034729 -59.14308167 47.81326294 C-55.2411192 47.82439453 -51.33939226 47.84948642 -47.4375 47.875 C-44.78060232 47.88617466 -42.12370685 47.8941631 -39.46679688 47.90234375 C-32.97778519 47.92431088 -26.48890943 47.95771823 -20 48 C-20.0314209 46.36587158 -20.0314209 46.36587158 -20.06347656 44.69873047 C-20.13611865 40.63978322 -20.18188718 36.58089294 -20.21972656 32.52148438 C-20.2397871 30.76780521 -20.26704251 29.01419247 -20.30175781 27.26074219 C-20.35052302 24.73355682 -20.37302392 22.20725909 -20.390625 19.6796875 C-20.41127014 18.90132538 -20.43191528 18.12296326 -20.45318604 17.3210144 C-20.45532725 12.07426119 -19.43747028 9.18034667 -16 5 C-10.58420856 0.22894564 -7.09115125 -0.64682799 0 0 Z "
            fill="#CBD0D8" transform="translate(260,24)"></path>

        <path
            d="M0 0 C10.56 0 21.12 0 32 0 C32 73.92 32 147.84 32 224 C15.17 224 -1.66 224 -19 224 C-29 205 -29 205 -31.8125 197.875 C-32.864375 196.26625 -33.91625 194.6575 -35 193 C-39.29 192.67 -43.58 192.34 -48 192 C-48 176.16 -48 160.32 -48 144 C-34.625 143.75 -34.625 143.75 -30.47119141 143.70214844 C-22.40836389 143.48016072 -14.3822982 142.88714229 -8.09423828 137.30957031 C-1.1315866 129.93630641 -0.55541694 122.46132209 -0.56762695 112.73071289 C-0.5574353 111.51049438 -0.54724365 110.29027588 -0.53674316 109.03308105 C-0.51181171 105.70496079 -0.4999032 102.37728114 -0.49388909 99.04910588 C-0.48447788 95.56436153 -0.45827239 92.07974343 -0.43388367 88.59507751 C-0.39029022 82.00442428 -0.36169945 75.41379566 -0.33856028 68.82304233 C-0.31147011 61.31629936 -0.26756105 53.80968384 -0.22227156 46.30303204 C-0.12952777 30.86873937 -0.06002014 15.43445989 0 0 Z "
            fill="#E5E8EC" transform="translate(344,136)"></path>

        <path
            d="M0 0 C10.56 0 21.12 0 32 0 C32.0093457 3.73948975 32.01869141 7.47897949 32.02832031 11.33178711 C32.06211127 23.69716799 32.11747205 36.06237375 32.18390274 48.42761898 C32.22364835 55.92351052 32.25606348 63.41929777 32.27099609 70.9152832 C32.28403596 77.45167 32.31105973 83.98782687 32.35461307 90.52408415 C32.37717588 93.98243678 32.39291383 97.44050638 32.39188385 100.89893913 C32.39099453 104.7674157 32.42133683 108.63531737 32.45410156 112.50366211 C32.4490712 113.64014694 32.44404083 114.77663177 32.43885803 115.94755554 C32.54152893 123.80048589 33.81908651 130.21199367 38.96484375 136.33984375 C39.94130859 137.13068359 39.94130859 137.13068359 40.9375 137.9375 C41.58589844 138.48277344 42.23429687 139.02804687 42.90234375 139.58984375 C47.51349501 142.68970521 51.54209816 143.27341527 57.05078125 143.4140625 C58.25645752 143.44967285 59.46213379 143.4852832 60.7043457 143.52197266 C62.22503662 143.55597168 63.74572754 143.5899707 65.3125 143.625 C70.159375 143.74875 75.00625 143.8725 80 144 C80 159.84 80 175.68 80 192 C75.71 192.33 71.42 192.66 67 193 C64.482669 195.53032926 63.71983075 196.52087281 62.484375 199.625 C62.17220032 200.28709473 61.86002563 200.94918945 61.53839111 201.63134766 C60.55915863 203.73548561 59.65489732 205.86299448 58.75 208 C58.09982584 209.43446497 57.44491692 210.86679387 56.78515625 212.296875 C55.58797643 214.9019825 54.42202662 217.51691691 53.28417969 220.1484375 C52 223 52 223 51 224 C34.17 224 17.34 224 0 224 C0 150.08 0 76.16 0 0 Z "
            fill="#E5E8EC" transform="translate(136,136)"></path>

        <path
            d="M0 0 C47.52 0 95.04 0 144 0 C144.061875 20.026875 144.12375 40.05375 144.1875 60.6875 C144.22846802 70.17310669 144.22846802 70.17310669 144.27026367 79.8503418 C144.28381348 87.57189941 144.28381348 87.57189941 144.28633118 91.18659973 C144.29093818 93.71139613 144.30148991 96.23618593 144.31672668 98.76094055 C144.33865196 102.58512848 144.34171914 106.40891303 144.34057617 110.2331543 C144.3513705 111.35810397 144.36216482 112.48305365 144.37328625 113.6420927 C144.36915376 114.67335687 144.36502127 115.70462103 144.36076355 116.76713562 C144.36352893 117.66219661 144.36629431 118.5572576 144.36914349 119.47944164 C143.91154619 122.60397376 142.87872732 124.47752925 141 127 C137.98509443 128.00496852 135.95818308 128.10335303 132.8125 128.0625 C131.91144531 128.05347656 131.01039063 128.04445313 130.08203125 128.03515625 C129.05142578 128.01775391 129.05142578 128.01775391 128 128 C127.99453156 126.2601886 127.99453156 126.2601886 127.98895264 124.48522949 C127.95196409 113.53874275 127.89414897 102.59253632 127.81609726 91.64626312 C127.77663792 86.0190466 127.74444172 80.3919862 127.72900391 74.76464844 C127.71382739 69.33093428 127.67936356 63.8976494 127.63169098 58.46412659 C127.61688756 56.39420814 127.60895958 54.32422841 127.60811615 52.2542572 C127.60574167 49.34807917 127.57862272 46.44308282 127.54589844 43.53710938 C127.5509288 42.68690216 127.55595917 41.83669495 127.56114197 40.96072388 C127.44293168 34.14713953 125.51961239 28.98197425 121.10546875 23.7578125 C114.68766886 18.29418652 108.91901929 16.46527675 100.484375 16.6953125 C93.30204014 17.57616489 89.00809902 21.56494463 84.4453125 26.90234375 C80.79956692 32.19360153 80.69675817 36.97646742 80.68115234 43.1965332 C80.67110672 44.11409897 80.6610611 45.03166473 80.65071106 45.97703552 C80.61988802 49.00161122 80.60284626 52.02609843 80.5859375 55.05078125 C80.56722516 57.15114605 80.5476517 59.25150333 80.5272522 61.35185242 C80.47593207 66.87390718 80.4363056 72.39598631 80.39910889 77.91815186 C80.35906859 83.55552194 80.30797633 89.19279064 80.2578125 94.83007812 C80.16105456 105.88664753 80.07664925 116.94327419 80 128 C74.72 128 69.44 128 64 128 C63.99453156 126.2601886 63.99453156 126.2601886 63.98895264 124.48522949 C63.95196409 113.53874275 63.89414897 102.59253632 63.81609726 91.64626312 C63.77663792 86.0190466 63.74444172 80.3919862 63.72900391 74.76464844 C63.71382739 69.33093428 63.67936356 63.8976494 63.63169098 58.46412659 C63.61688756 56.39420814 63.60895958 54.32422841 63.60811615 52.2542572 C63.60574167 49.34807917 63.57862272 46.44308282 63.54589844 43.53710938 C63.5509288 42.68690216 63.55595917 41.83669495 63.56114197 40.96072388 C63.44293168 34.14713953 61.51961239 28.98197425 57.10546875 23.7578125 C50.68766886 18.29418652 44.91901929 16.46527675 36.484375 16.6953125 C29.30204014 17.57616489 25.00809902 21.56494463 20.4453125 26.90234375 C16.79956692 32.19360153 16.69675817 36.97646742 16.68115234 43.1965332 C16.67110672 44.11409897 16.6610611 45.03166473 16.65071106 45.97703552 C16.61988802 49.00161122 16.60284626 52.02609843 16.5859375 55.05078125 C16.56722516 57.15114605 16.5476517 59.25150333 16.5272522 61.35185242 C16.47593207 66.87390718 16.4363056 72.39598631 16.39910889 77.91815186 C16.35906859 83.55552194 16.30797633 89.19279064 16.2578125 94.83007812 C16.16105456 105.88664753 16.07664925 116.94327419 16 128 C14.2507786 128.08142927 12.50045458 128.13938541 10.75 128.1875 C9.77546875 128.22230469 8.8009375 128.25710938 7.796875 128.29296875 C4.57223082 127.95519178 3.29209203 127.25529239 1 125 C0.00975836 122.02927507 -0.1234388 120.10594947 -0.12025452 117.00764465 C-0.12163201 115.97913548 -0.12300951 114.95062632 -0.12442875 113.8909502 C-0.12083064 112.75880431 -0.11723253 111.62665842 -0.11352539 110.46020508 C-0.11364593 109.25055682 -0.11376646 108.04090857 -0.11389065 106.7946043 C-0.11314282 102.8695614 -0.10552041 98.94456568 -0.09765625 95.01953125 C-0.09618643 92.6000572 -0.09516597 90.18058283 -0.09460449 87.7611084 C-0.08935624 78.77823409 -0.0753951 69.79536659 -0.0625 60.8125 C-0.041875 40.744375 -0.02125 20.67625 0 0 Z "
            fill="#FBD66F" transform="translate(184,136)"></path>

        <path
            d="M0 0 C4.1264762 0.85968254 5.41999322 2.30819813 8 5.625 C8.70058119 8.60598321 8.63345611 11.49592914 8.56762695 14.54614258 C8.56835709 15.43444763 8.56908722 16.32275269 8.56983948 17.23797607 C8.56636394 20.16578846 8.5275045 23.09199779 8.48828125 26.01953125 C8.47895301 28.05261872 8.47183695 30.08571745 8.46684265 32.11882019 C8.44777387 37.46368572 8.39867359 42.80786929 8.34332275 48.15246582 C8.292128 53.6087115 8.26932809 59.06506763 8.24414062 64.52148438 C8.19055515 75.22295548 8.10524337 85.92392098 8 96.625 C2.72 96.625 -2.56 96.625 -8 96.625 C-8.11583931 84.846533 -8.20468797 73.06820147 -8.25906086 61.28928089 C-8.28515697 55.81984655 -8.32055588 50.35080187 -8.37719727 44.8815918 C-8.43151563 39.60367184 -8.46142043 34.32612673 -8.47438622 29.04794884 C-8.48362635 27.03406561 -8.5016703 25.02020295 -8.52865028 23.00647926 C-8.56493813 20.18591576 -8.56994545 17.36690187 -8.56762695 14.54614258 C-8.58560333 13.71320175 -8.60357971 12.88026093 -8.62210083 12.02207947 C-8.58395548 7.73454166 -8.37529308 6.10746881 -5.65202332 2.60649109 C-3 0.625 -3 0.625 0 0 Z "
            fill="#FEE9A6" transform="translate(288,167.375)"></path>

        <path
            d="M0 0 C4.1264762 0.85968254 5.41999322 2.30819813 8 5.625 C8.70058119 8.60598321 8.63345611 11.49592914 8.56762695 14.54614258 C8.56835709 15.43444763 8.56908722 16.32275269 8.56983948 17.23797607 C8.56636394 20.16578846 8.5275045 23.09199779 8.48828125 26.01953125 C8.47895301 28.05261872 8.47183695 30.08571745 8.46684265 32.11882019 C8.44777387 37.46368572 8.39867359 42.80786929 8.34332275 48.15246582 C8.292128 53.6087115 8.26932809 59.06506763 8.24414062 64.52148438 C8.19055515 75.22295548 8.10524337 85.92392098 8 96.625 C2.72 96.625 -2.56 96.625 -8 96.625 C-8.11583931 84.846533 -8.20468797 73.06820147 -8.25906086 61.28928089 C-8.28515697 55.81984655 -8.32055588 50.35080187 -8.37719727 44.8815918 C-8.43151563 39.60367184 -8.46142043 34.32612673 -8.47438622 29.04794884 C-8.48362635 27.03406561 -8.5016703 25.02020295 -8.52865028 23.00647926 C-8.56493813 20.18591576 -8.56994545 17.36690187 -8.56762695 14.54614258 C-8.58560333 13.71320175 -8.60357971 12.88026093 -8.62210083 12.02207947 C-8.58395548 7.73454166 -8.37529308 6.10746881 -5.65202332 2.60649109 C-3 0.625 -3 0.625 0 0 Z "
            fill="#FEE9A6" transform="translate(224,167.375)"></path>

        <path
            d="M0 0 C28.38 0 56.76 0 86 0 C88.64 5.28 91.28 10.56 94 16 C60.34 16 26.68 16 -8 16 C-5.36 10.72 -2.72 5.44 0 0 Z "
            fill="#CBD0D8" transform="translate(213,344)"></path>

        <path
            d="M0 0 C5.28 0 10.56 0 16 0 C16 15.84 16 31.68 16 48 C10.72 48 5.44 48 0 48 C0 32.16 0 16.32 0 0 Z "
            fill="#CCD1D9" transform="translate(264,280)"></path>

        <path
            d="M0 0 C5.28 0 10.56 0 16 0 C16 15.84 16 31.68 16 48 C10.72 48 5.44 48 0 48 C0 32.16 0 16.32 0 0 Z "
            fill="#CCD1D9" transform="translate(232,280)"></path>

        <path
            d="M0 0 C5.28 0 10.56 0 16 0 C16.07425639 5.88986463 16.12865268 11.77945566 16.16479492 17.66967773 C16.17986465 19.67265572 16.2003241 21.6756008 16.22631836 23.6784668 C16.26278127 26.56046681 16.27974461 29.44202984 16.29296875 32.32421875 C16.30845261 33.21711105 16.32393646 34.11000336 16.33988953 35.029953 C16.34118487 39.83473067 16.18191753 43.12280859 13 47 C10.19084526 48.40457737 8.11189466 48.24895157 5 48 C1.8640843 46.22015595 1.15897264 45.47691793 0 42 C-0.08589303 40.60344541 -0.11772715 39.20314223 -0.11352539 37.80395508 C-0.11344986 36.96331009 -0.11337433 36.1226651 -0.11329651 35.25654602 C-0.10813522 34.35333115 -0.10297394 33.45011627 -0.09765625 32.51953125 C-0.0962413 31.59154221 -0.09482635 30.66355316 -0.09336853 29.70744324 C-0.08776937 26.74242942 -0.07521704 23.77749101 -0.0625 20.8125 C-0.05748489 18.80273547 -0.052922 16.79296975 -0.04882812 14.78320312 C-0.03780021 9.85543968 -0.02053617 4.92773263 0 0 Z "
            fill="#FDE8A6" transform="translate(344,440)"></path>

        <path
            d="M0 0 C5.28 0 10.56 0 16 0 C16.07425639 5.88986463 16.12865268 11.77945566 16.16479492 17.66967773 C16.17986465 19.67265572 16.2003241 21.6756008 16.22631836 23.6784668 C16.26278127 26.56046681 16.27974461 29.44202984 16.29296875 32.32421875 C16.30845261 33.21711105 16.32393646 34.11000336 16.33988953 35.029953 C16.34118487 39.83473067 16.18191753 43.12280859 13 47 C10.19084526 48.40457737 8.11189466 48.24895157 5 48 C1.8640843 46.22015595 1.15897264 45.47691793 0 42 C-0.08589303 40.60344541 -0.11772715 39.20314223 -0.11352539 37.80395508 C-0.11344986 36.96331009 -0.11337433 36.1226651 -0.11329651 35.25654602 C-0.10813522 34.35333115 -0.10297394 33.45011627 -0.09765625 32.51953125 C-0.0962413 31.59154221 -0.09482635 30.66355316 -0.09336853 29.70744324 C-0.08776937 26.74242942 -0.07521704 23.77749101 -0.0625 20.8125 C-0.05748489 18.80273547 -0.052922 16.79296975 -0.04882812 14.78320312 C-0.03780021 9.85543968 -0.02053617 4.92773263 0 0 Z "
            fill="#FDE8A6" transform="translate(280,440)"></path>

        <path
            d="M0 0 C5.28 0 10.56 0 16 0 C16.07425639 5.88986463 16.12865268 11.77945566 16.16479492 17.66967773 C16.17986465 19.67265572 16.2003241 21.6756008 16.22631836 23.6784668 C16.26278127 26.56046681 16.27974461 29.44202984 16.29296875 32.32421875 C16.30845261 33.21711105 16.32393646 34.11000336 16.33988953 35.029953 C16.34118487 39.83473067 16.18191753 43.12280859 13 47 C10.19084526 48.40457737 8.11189466 48.24895157 5 48 C1.8640843 46.22015595 1.15897264 45.47691793 0 42 C-0.08589303 40.60344541 -0.11772715 39.20314223 -0.11352539 37.80395508 C-0.11344986 36.96331009 -0.11337433 36.1226651 -0.11329651 35.25654602 C-0.10813522 34.35333115 -0.10297394 33.45011627 -0.09765625 32.51953125 C-0.0962413 31.59154221 -0.09482635 30.66355316 -0.09336853 29.70744324 C-0.08776937 26.74242942 -0.07521704 23.77749101 -0.0625 20.8125 C-0.05748489 18.80273547 -0.052922 16.79296975 -0.04882812 14.78320312 C-0.03780021 9.85543968 -0.02053617 4.92773263 0 0 Z "
            fill="#FDE8A6" transform="translate(216,440)"></path>

        <path
            d="M0 0 C5.28 0 10.56 0 16 0 C16.07425639 5.88986463 16.12865268 11.77945566 16.16479492 17.66967773 C16.17986465 19.67265572 16.2003241 21.6756008 16.22631836 23.6784668 C16.26278127 26.56046681 16.27974461 29.44202984 16.29296875 32.32421875 C16.30845261 33.21711105 16.32393646 34.11000336 16.33988953 35.029953 C16.34118487 39.83473067 16.18191753 43.12280859 13 47 C10.19084526 48.40457737 8.11189466 48.24895157 5 48 C1.8640843 46.22015595 1.15897264 45.47691793 0 42 C-0.08589303 40.60344541 -0.11772715 39.20314223 -0.11352539 37.80395508 C-0.11344986 36.96331009 -0.11337433 36.1226651 -0.11329651 35.25654602 C-0.10813522 34.35333115 -0.10297394 33.45011627 -0.09765625 32.51953125 C-0.0962413 31.59154221 -0.09482635 30.66355316 -0.09336853 29.70744324 C-0.08776937 26.74242942 -0.07521704 23.77749101 -0.0625 20.8125 C-0.05748489 18.80273547 -0.052922 16.79296975 -0.04882812 14.78320312 C-0.03780021 9.85543968 -0.02053617 4.92773263 0 0 Z "
            fill="#FDE8A6" transform="translate(152,440)"></path>

        <path
            d="M0 0 C5.28 0 10.56 0 16 0 C16 5.28 16 10.56 16 16 C10.72 16 5.44 16 0 16 C0 10.72 0 5.44 0 0 Z "
            fill="#000000" transform="translate(360,392)"></path>
        <path
            d="M0 0 C5.28 0 10.56 0 16 0 C16 5.28 16 10.56 16 16 C10.72 16 5.44 16 0 16 C0 10.72 0 5.44 0 0 Z "
            fill="#000000" transform="translate(328,392)"></path>
        <path
            d="M0 0 C5.28 0 10.56 0 16 0 C16 5.28 16 10.56 16 16 C10.72 16 5.44 16 0 16 C0 10.72 0 5.44 0 0 Z "
            fill="#000000" transform="translate(296,392)"></path>
        <path
            d="M0 0 C5.28 0 10.56 0 16 0 C16 5.28 16 10.56 16 16 C10.72 16 5.44 16 0 16 C0 10.72 0 5.44 0 0 Z "
            fill="#000000" transform="translate(264,392)"></path>
        <path
            d="M0 0 C5.28 0 10.56 0 16 0 C16 5.28 16 10.56 16 16 C10.72 16 5.44 16 0 16 C0 10.72 0 5.44 0 0 Z "
            fill="#000000" transform="translate(232,392)"></path>
        <path
            d="M0 0 C5.28 0 10.56 0 16 0 C16 5.28 16 10.56 16 16 C10.72 16 5.44 16 0 16 C0 10.72 0 5.44 0 0 Z "
            fill="#000000" transform="translate(200,392)"></path>
        <path
            d="M0 0 C5.28 0 10.56 0 16 0 C16 5.28 16 10.56 16 16 C10.72 16 5.44 16 0 16 C0 10.72 0 5.44 0 0 Z "
            fill="#000000" transform="translate(168,392)"></path>
        <path
            d="M0 0 C5.28 0 10.56 0 16 0 C16 5.28 16 10.56 16 16 C10.72 16 5.44 16 0 16 C0 10.72 0 5.44 0 0 Z "
            fill="#000000" transform="translate(136,392)"></path>
    </g>
</svg>