<svg xmlns="http://www.w3.org/2000/svg" viewBox="0 0 248 204" width="24" height="24" aria-hidden="true" focusable="false">
    <path fill="#1da1f2" d="M248,24.6a102.2,102.2,0,0,1-29.4,8.1,51.3,51.3,0,0,0,22.4-28.3,102.6,102.6,0,0,1-32.4,12.4A51.3,51.3,0,0,0,120.9,51.3,145.5,145.5,0,0,1,17.3,9.2,51.3,51.3,0,0,0,33.3,77.8,50.9,50.9,0,0,1,10.2,71v.6A51.3,51.3,0,0,0,51.3,122a51.1,51.1,0,0,1-23.1.9,51.3,51.3,0,0,0,47.9,35.6,102.8,102.8,0,0,1-63.7,21.9A104.8,104.8,0,0,1,0,179.3a145,145,0,0,0,78.4,23C172.8,202.3,224,124.5,224,57.1c0-2.2,0-4.3-.1-6.4A101.5,101.5,0,0,0,248,24.6Z" />
</svg>